<svg width="56" height="35" viewBox="0 0 56 35" fill="none" xmlns="http://www.w3.org/2000/svg">
<rect width="56" height="35" rx="6" fill="url(#paint0_linear_16_761)"/>
<path d="M11.328 24V12.8H16.416C17.632 12.8 18.704 13.0347 19.632 13.504C20.56 13.9627 21.2853 14.608 21.808 15.44C22.3307 16.272 22.592 17.2587 22.592 18.4C22.592 19.5307 22.3307 20.5173 21.808 21.36C21.2853 22.192 20.56 22.8427 19.632 23.312C18.704 23.7707 17.632 24 16.416 24H11.328ZM13.92 21.872H16.288C17.0347 21.872 17.68 21.7333 18.224 21.456C18.7787 21.168 19.2053 20.7627 19.504 20.24C19.8133 19.7173 19.968 19.104 19.968 18.4C19.968 17.6853 19.8133 17.072 19.504 16.56C19.2053 16.0373 18.7787 15.6373 18.224 15.36C17.68 15.072 17.0347 14.928 16.288 14.928H13.92V21.872ZM26.9308 17.312H32.3228V19.328H26.9308V17.312ZM27.1228 21.92H33.2188V24H24.5468V12.8H33.0108V14.88H27.1228V21.92ZM38.4849 24L33.6529 12.8H36.4529L40.6769 22.72H39.0289L43.3169 12.8H45.8929L41.0449 24H38.4849Z" fill="white"/>
<defs>
<linearGradient id="paint0_linear_16_761" x1="56" y1="18" x2="-2.99902e-07" y2="18" gradientUnits="userSpaceOnUse">
<stop stop-color="#A04DBA"/>
<stop offset="1" stop-color="#984CBB"/>
</linearGradient>
</defs>
</svg>
