<svg width="68" height="35" viewBox="0 0 68 35" fill="none" xmlns="http://www.w3.org/2000/svg">
<rect width="68" height="35" rx="6" fill="url(#paint0_linear_16_756)"/>
<path d="M13.712 17.312H19.104V19.328H13.712V17.312ZM13.904 21.92H20V24H11.328V12.8H19.792V14.88H13.904V21.92ZM32.9104 15.264C33.593 15.264 34.1957 15.4027 34.7184 15.68C35.2517 15.9467 35.6677 16.3627 35.9664 16.928C36.2757 17.4827 36.4304 18.1973 36.4304 19.072V24H33.9344V19.456C33.9344 18.7627 33.7904 18.2507 33.5024 17.92C33.2144 17.5893 32.809 17.424 32.2864 17.424C31.9237 17.424 31.5984 17.5093 31.3104 17.68C31.0224 17.84 30.7984 18.0853 30.6384 18.416C30.4784 18.7467 30.3984 19.168 30.3984 19.68V24H27.9024V19.456C27.9024 18.7627 27.7584 18.2507 27.4704 17.92C27.193 17.5893 26.793 17.424 26.2704 17.424C25.9077 17.424 25.5824 17.5093 25.2944 17.68C25.0064 17.84 24.7824 18.0853 24.6224 18.416C24.4624 18.7467 24.3824 19.168 24.3824 19.68V24H21.8864V15.392H24.2704V17.744L23.8224 17.056C24.121 16.4693 24.5424 16.0267 25.0864 15.728C25.641 15.4187 26.2704 15.264 26.9744 15.264C27.7637 15.264 28.4517 15.4667 29.0384 15.872C29.6357 16.2667 30.0304 16.8747 30.2224 17.696L29.3424 17.456C29.6304 16.784 30.089 16.2507 30.7184 15.856C31.3584 15.4613 32.089 15.264 32.9104 15.264ZM43.9476 24V22.32L43.7876 21.952V18.944C43.7876 18.4107 43.6223 17.9947 43.2916 17.696C42.9716 17.3973 42.4756 17.248 41.8036 17.248C41.345 17.248 40.8916 17.3227 40.4436 17.472C40.0063 17.6107 39.633 17.8027 39.3236 18.048L38.4276 16.304C38.897 15.9733 39.4623 15.7173 40.1236 15.536C40.785 15.3547 41.457 15.264 42.1396 15.264C43.4516 15.264 44.4703 15.5733 45.1956 16.192C45.921 16.8107 46.2836 17.776 46.2836 19.088V24H43.9476ZM41.3236 24.128C40.6516 24.128 40.0756 24.016 39.5956 23.792C39.1156 23.5573 38.7476 23.2427 38.4916 22.848C38.2356 22.4533 38.1076 22.0107 38.1076 21.52C38.1076 21.008 38.2303 20.56 38.4756 20.176C38.7316 19.792 39.1316 19.4933 39.6756 19.28C40.2196 19.056 40.929 18.944 41.8036 18.944H44.0916V20.4H42.0756C41.489 20.4 41.0836 20.496 40.8596 20.688C40.6463 20.88 40.5396 21.12 40.5396 21.408C40.5396 21.728 40.6623 21.984 40.9076 22.176C41.1636 22.3573 41.5103 22.448 41.9476 22.448C42.3636 22.448 42.737 22.352 43.0676 22.16C43.3983 21.9573 43.6383 21.664 43.7876 21.28L44.1716 22.432C43.9903 22.9867 43.6596 23.408 43.1796 23.696C42.6996 23.984 42.081 24.128 41.3236 24.128ZM48.5426 24V15.392H51.0386V24H48.5426ZM49.7906 14.192C49.332 14.192 48.9586 14.0587 48.6706 13.792C48.3826 13.5253 48.2386 13.1947 48.2386 12.8C48.2386 12.4053 48.3826 12.0747 48.6706 11.808C48.9586 11.5413 49.332 11.408 49.7906 11.408C50.2493 11.408 50.6226 11.536 50.9106 11.792C51.1986 12.0373 51.3426 12.3573 51.3426 12.752C51.3426 13.168 51.1986 13.5147 50.9106 13.792C50.6333 14.0587 50.26 14.192 49.7906 14.192ZM53.3551 24V12.128H55.8511V24H53.3551Z" fill="white"/>
<defs>
<linearGradient id="paint0_linear_16_756" x1="68" y1="18" x2="-3.64166e-07" y2="18" gradientUnits="userSpaceOnUse">
<stop stop-color="#954CBC"/>
<stop offset="1" stop-color="#8C4BBD"/>
</linearGradient>
</defs>
</svg>
