<svg width="846" height="280" viewBox="0 0 846 280" fill="none" xmlns="http://www.w3.org/2000/svg">
<g clip-path="url(#clip0_5_33)">
<rect width="846" height="280" rx="6" fill="url(#paint0_linear_5_33)"/>
<path d="M41.824 71V48.6H48.032L56.992 63.224H53.728L62.432 48.6H68.64L68.704 71H61.824L61.76 58.968H62.848L56.896 68.984H53.568L47.36 58.968H48.704V71H41.824ZM72.3553 71V48.6H79.9073V71H72.3553ZM90.2948 66.2L89.8788 57.912L98.3268 48.6H106.551L97.0788 59.032L92.8868 63.32L90.2948 66.2ZM83.5428 71V48.6H90.9668V71H83.5428ZM98.2628 71L91.6708 62.296L96.5668 57.112L106.999 71H98.2628ZM122.54 48.6H130.092V71H122.54V48.6ZM115.564 71H108.012V48.6H115.564V71ZM123.052 62.744H115.052V56.536H123.052V62.744ZM131.298 71L141.09 48.6H148.514L158.306 71H150.498L143.266 52.184H146.21L138.978 71H131.298ZM137.122 67.096L139.042 61.656H149.346L151.266 67.096H137.122ZM159.512 71V48.6H167.064V71H159.512ZM170.699 71V48.6H178.251V65.144H188.363V71H170.699ZM211.659 71.512C209.845 71.512 208.171 71.2347 206.635 70.68C205.12 70.104 203.797 69.2933 202.667 68.248C201.557 67.2027 200.693 65.9653 200.075 64.536C199.456 63.1067 199.147 61.528 199.147 59.8C199.147 58.072 199.456 56.4933 200.075 55.064C200.693 53.6347 201.568 52.3973 202.699 51.352C203.829 50.3067 205.163 49.5067 206.699 48.952C208.256 48.376 209.963 48.088 211.819 48.088C214.037 48.088 216.011 48.4613 217.739 49.208C219.488 49.9547 220.928 51.0213 222.059 52.408L217.227 56.664C216.523 55.8533 215.755 55.2453 214.923 54.84C214.112 54.4133 213.205 54.2 212.203 54.2C211.371 54.2 210.613 54.328 209.931 54.584C209.269 54.84 208.704 55.2133 208.235 55.704C207.765 56.1947 207.403 56.7813 207.147 57.464C206.891 58.1467 206.763 58.9253 206.763 59.8C206.763 60.632 206.891 61.4 207.147 62.104C207.403 62.7867 207.765 63.3733 208.235 63.864C208.704 64.3547 209.259 64.7387 209.899 65.016C210.56 65.272 211.296 65.4 212.107 65.4C212.96 65.4 213.792 65.2613 214.603 64.984C215.413 64.6853 216.277 64.184 217.195 63.48L221.419 68.664C220.053 69.5813 218.496 70.2853 216.747 70.776C214.997 71.2667 213.301 71.512 211.659 71.512ZM214.859 67.704V59.192H221.419V68.664L214.859 67.704ZM224.637 71V48.6H235.421C237.511 48.6 239.314 48.9413 240.829 49.624C242.365 50.3067 243.549 51.288 244.381 52.568C245.213 53.8267 245.629 55.32 245.629 57.048C245.629 58.776 245.213 60.2693 244.381 61.528C243.549 62.7653 242.365 63.7147 240.829 64.376C239.314 65.0373 237.511 65.368 235.421 65.368H228.829L232.189 62.264V71H224.637ZM238.045 71L232.541 62.84H240.541L246.109 71H238.045ZM232.189 63.096L228.829 59.672H234.941C235.986 59.672 236.754 59.4373 237.245 58.968C237.757 58.4987 238.013 57.8587 238.013 57.048C238.013 56.2373 237.757 55.5973 237.245 55.128C236.754 54.6587 235.986 54.424 234.941 54.424H228.829L232.189 51V63.096ZM255.392 56.92H265.376V62.36H255.392V56.92ZM255.904 65.304H267.104V71H248.48V48.6H266.688V54.296H255.904V65.304ZM281.596 71.512C279.804 71.512 278.14 71.2347 276.604 70.68C275.089 70.104 273.766 69.2933 272.636 68.248C271.526 67.2027 270.662 65.9653 270.044 64.536C269.425 63.1067 269.116 61.528 269.116 59.8C269.116 58.072 269.425 56.4933 270.044 55.064C270.662 53.6347 271.526 52.3973 272.636 51.352C273.766 50.3067 275.089 49.5067 276.604 48.952C278.14 48.376 279.804 48.088 281.596 48.088C283.793 48.088 285.734 48.472 287.42 49.24C289.126 50.008 290.534 51.1173 291.644 52.568L286.876 56.824C286.214 55.992 285.478 55.352 284.668 54.904C283.878 54.4347 282.982 54.2 281.98 54.2C281.19 54.2 280.476 54.328 279.836 54.584C279.196 54.84 278.641 55.2133 278.172 55.704C277.724 56.1947 277.372 56.792 277.116 57.496C276.86 58.1787 276.732 58.9467 276.732 59.8C276.732 60.6533 276.86 61.432 277.116 62.136C277.372 62.8187 277.724 63.4053 278.172 63.896C278.641 64.3867 279.196 64.76 279.836 65.016C280.476 65.272 281.19 65.4 281.98 65.4C282.982 65.4 283.878 65.176 284.668 64.728C285.478 64.2587 286.214 63.608 286.876 62.776L291.644 67.032C290.534 68.4613 289.126 69.5707 287.42 70.36C285.734 71.128 283.793 71.512 281.596 71.512ZM308.352 48.6H315.904V71H308.352V48.6ZM301.376 71H293.824V48.6H301.376V71ZM308.864 62.744H300.864V56.536H308.864V62.744ZM326.295 66.2L325.879 57.912L334.327 48.6H342.551L333.079 59.032L328.887 63.32L326.295 66.2ZM319.543 71V48.6H326.967V71H319.543ZM334.263 71L327.671 62.296L332.567 57.112L342.999 71H334.263ZM340.454 71L350.247 48.6H357.671L367.463 71H359.655L352.423 52.184H355.367L348.135 71H340.454ZM346.279 67.096L348.199 61.656H358.503L360.423 67.096H346.279Z" fill="white"/>
<path d="M46.688 95.096C45.8453 95.096 45.0667 94.9573 44.352 94.68C43.6373 94.392 43.0187 93.992 42.496 93.48C41.9733 92.968 41.5627 92.3653 41.264 91.672C40.976 90.9787 40.832 90.2213 40.832 89.4C40.832 88.5787 40.976 87.8213 41.264 87.128C41.5627 86.4347 41.9733 85.832 42.496 85.32C43.0293 84.808 43.6533 84.4133 44.368 84.136C45.0827 83.848 45.8613 83.704 46.704 83.704C47.5147 83.704 48.2773 83.8427 48.992 84.12C49.7067 84.3867 50.3093 84.792 50.8 85.336L50.048 86.088C49.5893 85.6187 49.0827 85.2827 48.528 85.08C47.9733 84.8667 47.376 84.76 46.736 84.76C46.064 84.76 45.44 84.8773 44.864 85.112C44.288 85.336 43.7867 85.6613 43.36 86.088C42.9333 86.504 42.5973 86.9947 42.352 87.56C42.1173 88.1147 42 88.728 42 89.4C42 90.072 42.1173 90.6907 42.352 91.256C42.5973 91.8107 42.9333 92.3013 43.36 92.728C43.7867 93.144 44.288 93.4693 44.864 93.704C45.44 93.928 46.064 94.04 46.736 94.04C47.376 94.04 47.9733 93.9333 48.528 93.72C49.0827 93.5067 49.5893 93.1653 50.048 92.696L50.8 93.448C50.3093 93.992 49.7067 94.4027 48.992 94.68C48.2773 94.9573 47.5093 95.096 46.688 95.096ZM56.133 95.08C55.3223 95.08 54.5917 94.8987 53.941 94.536C53.301 94.1627 52.7943 93.656 52.421 93.016C52.0477 92.3653 51.861 91.624 51.861 90.792C51.861 89.9493 52.0477 89.208 52.421 88.568C52.7943 87.928 53.301 87.4267 53.941 87.064C54.581 86.7013 55.3117 86.52 56.133 86.52C56.965 86.52 57.701 86.7013 58.341 87.064C58.9917 87.4267 59.4983 87.928 59.861 88.568C60.2343 89.208 60.421 89.9493 60.421 90.792C60.421 91.624 60.2343 92.3653 59.861 93.016C59.4983 93.656 58.9917 94.1627 58.341 94.536C57.6903 94.8987 56.9543 95.08 56.133 95.08ZM56.133 94.072C56.741 94.072 57.2797 93.9387 57.749 93.672C58.2183 93.3947 58.5863 93.0107 58.853 92.52C59.1303 92.0187 59.269 91.4427 59.269 90.792C59.269 90.1307 59.1303 89.5547 58.853 89.064C58.5863 88.5733 58.2183 88.1947 57.749 87.928C57.2797 87.6507 56.7463 87.512 56.149 87.512C55.5517 87.512 55.0183 87.6507 54.549 87.928C54.0797 88.1947 53.7063 88.5733 53.429 89.064C53.1517 89.5547 53.013 90.1307 53.013 90.792C53.013 91.4427 53.1517 92.0187 53.429 92.52C53.7063 93.0107 54.0797 93.3947 54.549 93.672C55.0183 93.9387 55.5463 94.072 56.133 94.072ZM67.0283 86.52C67.7109 86.52 68.3083 86.6533 68.8203 86.92C69.3429 87.176 69.7483 87.5707 70.0363 88.104C70.3349 88.6373 70.4843 89.3093 70.4843 90.12V95H69.3483V90.232C69.3483 89.3467 69.1243 88.68 68.6763 88.232C68.2389 87.7733 67.6203 87.544 66.8203 87.544C66.2229 87.544 65.7003 87.6667 65.2523 87.912C64.8149 88.1467 64.4736 88.4933 64.2283 88.952C63.9936 89.4 63.8763 89.944 63.8763 90.584V95H62.7403V86.6H63.8283V88.904L63.6523 88.472C63.9189 87.864 64.3456 87.3893 64.9323 87.048C65.5189 86.696 66.2176 86.52 67.0283 86.52ZM75.8088 95.08C75.1154 95.08 74.4594 94.984 73.8408 94.792C73.2221 94.5893 72.7368 94.3387 72.3848 94.04L72.8968 93.144C73.2381 93.4 73.6754 93.624 74.2088 93.816C74.7421 93.9973 75.3021 94.088 75.8888 94.088C76.6888 94.088 77.2648 93.9653 77.6168 93.72C77.9688 93.464 78.1448 93.128 78.1448 92.712C78.1448 92.4027 78.0434 92.1627 77.8408 91.992C77.6488 91.8107 77.3928 91.6773 77.0728 91.592C76.7528 91.496 76.3954 91.416 76.0008 91.352C75.6061 91.288 75.2114 91.2133 74.8168 91.128C74.4328 91.0427 74.0808 90.92 73.7608 90.76C73.4408 90.5893 73.1794 90.36 72.9768 90.072C72.7848 89.784 72.6888 89.4 72.6888 88.92C72.6888 88.4613 72.8168 88.0507 73.0728 87.688C73.3288 87.3253 73.7021 87.0427 74.1928 86.84C74.6941 86.6267 75.3021 86.52 76.0168 86.52C76.5608 86.52 77.1048 86.5947 77.6488 86.744C78.1928 86.8827 78.6408 87.0693 78.9928 87.304L78.4968 88.216C78.1234 87.96 77.7234 87.7787 77.2968 87.672C76.8701 87.5547 76.4434 87.496 76.0168 87.496C75.2594 87.496 74.6994 87.6293 74.3368 87.896C73.9848 88.152 73.8088 88.4827 73.8088 88.888C73.8088 89.208 73.9048 89.4587 74.0968 89.64C74.2994 89.8213 74.5608 89.9653 74.8808 90.072C75.2114 90.168 75.5688 90.248 75.9528 90.312C76.3474 90.376 76.7368 90.456 77.1208 90.552C77.5154 90.6373 77.8728 90.76 78.1928 90.92C78.5234 91.0693 78.7848 91.288 78.9768 91.576C79.1794 91.8533 79.2808 92.2213 79.2808 92.68C79.2808 93.1707 79.1421 93.5973 78.8648 93.96C78.5981 94.312 78.2034 94.5893 77.6808 94.792C77.1688 94.984 76.5448 95.08 75.8088 95.08ZM84.8533 95.08C84.0213 95.08 83.2746 94.8987 82.6133 94.536C81.9626 94.1627 81.4506 93.656 81.0773 93.016C80.7039 92.3653 80.5173 91.624 80.5173 90.792C80.5173 89.9493 80.7039 89.208 81.0773 88.568C81.4506 87.928 81.9626 87.4267 82.6133 87.064C83.2746 86.7013 84.0213 86.52 84.8533 86.52C85.5679 86.52 86.2133 86.6587 86.7893 86.936C87.3653 87.2133 87.8186 87.6293 88.1493 88.184L87.3013 88.76C87.0133 88.3333 86.6559 88.0187 86.2293 87.816C85.8026 87.6133 85.3386 87.512 84.8373 87.512C84.2399 87.512 83.7013 87.6507 83.2213 87.928C82.7413 88.1947 82.3626 88.5733 82.0853 89.064C81.8079 89.5547 81.6693 90.1307 81.6693 90.792C81.6693 91.4533 81.8079 92.0293 82.0853 92.52C82.3626 93.0107 82.7413 93.3947 83.2213 93.672C83.7013 93.9387 84.2399 94.072 84.8373 94.072C85.3386 94.072 85.8026 93.9707 86.2293 93.768C86.6559 93.5653 87.0133 93.256 87.3013 92.84L88.1493 93.416C87.8186 93.96 87.3653 94.376 86.7893 94.664C86.2133 94.9413 85.5679 95.08 84.8533 95.08ZM90.2559 95V86.6H91.3919V95H90.2559ZM90.8319 84.744C90.5972 84.744 90.3999 84.664 90.2399 84.504C90.0799 84.344 89.9999 84.152 89.9999 83.928C89.9999 83.704 90.0799 83.5173 90.2399 83.368C90.3999 83.208 90.5972 83.128 90.8319 83.128C91.0665 83.128 91.2639 83.2027 91.4239 83.352C91.5839 83.5013 91.6639 83.688 91.6639 83.912C91.6639 84.1467 91.5839 84.344 91.4239 84.504C91.2745 84.664 91.0772 84.744 90.8319 84.744ZM98.1208 95.08C97.2461 95.08 96.4781 94.8987 95.8168 94.536C95.1554 94.1627 94.6381 93.656 94.2648 93.016C93.8914 92.3653 93.7048 91.624 93.7048 90.792C93.7048 89.96 93.8808 89.224 94.2328 88.584C94.5954 87.944 95.0861 87.4427 95.7048 87.08C96.3341 86.7067 97.0381 86.52 97.8168 86.52C98.6061 86.52 99.3048 86.7013 99.9128 87.064C100.531 87.416 101.017 87.9173 101.369 88.568C101.721 89.208 101.897 89.9493 101.897 90.792C101.897 90.8453 101.891 90.904 101.881 90.968C101.881 91.0213 101.881 91.08 101.881 91.144H94.5688V90.296H101.273L100.825 90.632C100.825 90.024 100.691 89.4853 100.425 89.016C100.169 88.536 99.8168 88.1627 99.3688 87.896C98.9208 87.6293 98.4034 87.496 97.8168 87.496C97.2408 87.496 96.7234 87.6293 96.2648 87.896C95.8061 88.1627 95.4488 88.536 95.1928 89.016C94.9368 89.496 94.8088 90.0453 94.8088 90.664V90.84C94.8088 91.48 94.9474 92.0453 95.2248 92.536C95.5128 93.016 95.9074 93.3947 96.4088 93.672C96.9208 93.9387 97.5021 94.072 98.1528 94.072C98.6648 94.072 99.1394 93.9813 99.5768 93.8C100.025 93.6187 100.409 93.3413 100.729 92.968L101.369 93.704C100.995 94.152 100.526 94.4933 99.9608 94.728C99.4061 94.9627 98.7928 95.08 98.1208 95.08ZM108.497 86.52C109.18 86.52 109.777 86.6533 110.289 86.92C110.812 87.176 111.217 87.5707 111.505 88.104C111.804 88.6373 111.953 89.3093 111.953 90.12V95H110.817V90.232C110.817 89.3467 110.593 88.68 110.145 88.232C109.708 87.7733 109.089 87.544 108.289 87.544C107.692 87.544 107.169 87.6667 106.721 87.912C106.284 88.1467 105.942 88.4933 105.697 88.952C105.462 89.4 105.345 89.944 105.345 90.584V95H104.209V86.6H105.297V88.904L105.121 88.472C105.388 87.864 105.814 87.3893 106.401 87.048C106.988 86.696 107.686 86.52 108.497 86.52ZM117.678 95.08C116.888 95.08 116.28 94.8667 115.854 94.44C115.427 94.0133 115.214 93.4107 115.214 92.632V84.744H116.35V92.568C116.35 93.0587 116.472 93.4373 116.718 93.704C116.974 93.9707 117.336 94.104 117.806 94.104C118.307 94.104 118.723 93.96 119.054 93.672L119.454 94.488C119.23 94.6907 118.958 94.84 118.638 94.936C118.328 95.032 118.008 95.08 117.678 95.08ZM113.71 87.544V86.6H118.91V87.544H113.71ZM121.522 95V86.6H122.658V95H121.522ZM122.098 84.744C121.863 84.744 121.666 84.664 121.506 84.504C121.346 84.344 121.266 84.152 121.266 83.928C121.266 83.704 121.346 83.5173 121.506 83.368C121.666 83.208 121.863 83.128 122.098 83.128C122.332 83.128 122.53 83.2027 122.69 83.352C122.85 83.5013 122.93 83.688 122.93 83.912C122.93 84.1467 122.85 84.344 122.69 84.504C122.54 84.664 122.343 84.744 122.098 84.744ZM129.242 95.08C128.432 95.08 127.701 94.8987 127.05 94.536C126.41 94.1627 125.904 93.656 125.53 93.016C125.157 92.3653 124.97 91.624 124.97 90.792C124.97 89.9493 125.157 89.208 125.53 88.568C125.904 87.928 126.41 87.4267 127.05 87.064C127.69 86.7013 128.421 86.52 129.242 86.52C130.074 86.52 130.81 86.7013 131.45 87.064C132.101 87.4267 132.608 87.928 132.97 88.568C133.344 89.208 133.53 89.9493 133.53 90.792C133.53 91.624 133.344 92.3653 132.97 93.016C132.608 93.656 132.101 94.1627 131.45 94.536C130.8 94.8987 130.064 95.08 129.242 95.08ZM129.242 94.072C129.85 94.072 130.389 93.9387 130.858 93.672C131.328 93.3947 131.696 93.0107 131.962 92.52C132.24 92.0187 132.378 91.4427 132.378 90.792C132.378 90.1307 132.24 89.5547 131.962 89.064C131.696 88.5733 131.328 88.1947 130.858 87.928C130.389 87.6507 129.856 87.512 129.258 87.512C128.661 87.512 128.128 87.6507 127.658 87.928C127.189 88.1947 126.816 88.5733 126.538 89.064C126.261 89.5547 126.122 90.1307 126.122 90.792C126.122 91.4427 126.261 92.0187 126.538 92.52C126.816 93.0107 127.189 93.3947 127.658 93.672C128.128 93.9387 128.656 94.072 129.242 94.072ZM139.322 95.08C138.607 95.08 137.983 94.9467 137.45 94.68C136.916 94.4133 136.5 94.0133 136.202 93.48C135.914 92.9467 135.77 92.28 135.77 91.48V86.6H136.906V91.352C136.906 92.248 137.124 92.9253 137.562 93.384C138.01 93.832 138.634 94.056 139.434 94.056C140.02 94.056 140.527 93.9387 140.954 93.704C141.391 93.4587 141.722 93.1067 141.946 92.648C142.18 92.1893 142.298 91.64 142.298 91V86.6H143.434V95H142.346V92.696L142.522 93.112C142.255 93.7307 141.839 94.216 141.274 94.568C140.719 94.9093 140.068 95.08 139.322 95.08ZM148.856 95.08C148.162 95.08 147.506 94.984 146.888 94.792C146.269 94.5893 145.784 94.3387 145.432 94.04L145.944 93.144C146.285 93.4 146.722 93.624 147.256 93.816C147.789 93.9973 148.349 94.088 148.936 94.088C149.736 94.088 150.312 93.9653 150.664 93.72C151.016 93.464 151.192 93.128 151.192 92.712C151.192 92.4027 151.09 92.1627 150.888 91.992C150.696 91.8107 150.44 91.6773 150.12 91.592C149.8 91.496 149.442 91.416 149.048 91.352C148.653 91.288 148.258 91.2133 147.864 91.128C147.48 91.0427 147.128 90.92 146.808 90.76C146.488 90.5893 146.226 90.36 146.024 90.072C145.832 89.784 145.736 89.4 145.736 88.92C145.736 88.4613 145.864 88.0507 146.12 87.688C146.376 87.3253 146.749 87.0427 147.24 86.84C147.741 86.6267 148.349 86.52 149.064 86.52C149.608 86.52 150.152 86.5947 150.696 86.744C151.24 86.8827 151.688 87.0693 152.04 87.304L151.544 88.216C151.17 87.96 150.77 87.7787 150.344 87.672C149.917 87.5547 149.49 87.496 149.064 87.496C148.306 87.496 147.746 87.6293 147.384 87.896C147.032 88.152 146.856 88.4827 146.856 88.888C146.856 89.208 146.952 89.4587 147.144 89.64C147.346 89.8213 147.608 89.9653 147.928 90.072C148.258 90.168 148.616 90.248 149 90.312C149.394 90.376 149.784 90.456 150.168 90.552C150.562 90.6373 150.92 90.76 151.24 90.92C151.57 91.0693 151.832 91.288 152.024 91.576C152.226 91.8533 152.328 92.2213 152.328 92.68C152.328 93.1707 152.189 93.5973 151.912 93.96C151.645 94.312 151.25 94.5893 150.728 94.792C150.216 94.984 149.592 95.08 148.856 95.08ZM159.896 89.224H165.816V90.248H159.896V89.224ZM160.024 95H158.84V83.8H166.52V84.824H160.024V95ZM168.568 95V86.6H169.656V88.888L169.544 88.488C169.779 87.848 170.174 87.3627 170.728 87.032C171.283 86.6907 171.971 86.52 172.792 86.52V87.624C172.75 87.624 172.707 87.624 172.664 87.624C172.622 87.6133 172.579 87.608 172.536 87.608C171.651 87.608 170.958 87.88 170.456 88.424C169.955 88.9573 169.704 89.72 169.704 90.712V95H168.568ZM178.211 95.08C177.4 95.08 176.67 94.8987 176.019 94.536C175.379 94.1627 174.872 93.656 174.499 93.016C174.126 92.3653 173.939 91.624 173.939 90.792C173.939 89.9493 174.126 89.208 174.499 88.568C174.872 87.928 175.379 87.4267 176.019 87.064C176.659 86.7013 177.39 86.52 178.211 86.52C179.043 86.52 179.779 86.7013 180.419 87.064C181.07 87.4267 181.576 87.928 181.939 88.568C182.312 89.208 182.499 89.9493 182.499 90.792C182.499 91.624 182.312 92.3653 181.939 93.016C181.576 93.656 181.07 94.1627 180.419 94.536C179.768 94.8987 179.032 95.08 178.211 95.08ZM178.211 94.072C178.819 94.072 179.358 93.9387 179.827 93.672C180.296 93.3947 180.664 93.0107 180.931 92.52C181.208 92.0187 181.347 91.4427 181.347 90.792C181.347 90.1307 181.208 89.5547 180.931 89.064C180.664 88.5733 180.296 88.1947 179.827 87.928C179.358 87.6507 178.824 87.512 178.227 87.512C177.63 87.512 177.096 87.6507 176.627 87.928C176.158 88.1947 175.784 88.5733 175.507 89.064C175.23 89.5547 175.091 90.1307 175.091 90.792C175.091 91.4427 175.23 92.0187 175.507 92.52C175.784 93.0107 176.158 93.3947 176.627 93.672C177.096 93.9387 177.624 94.072 178.211 94.072ZM189.106 86.52C189.789 86.52 190.386 86.6533 190.898 86.92C191.421 87.176 191.826 87.5707 192.114 88.104C192.413 88.6373 192.562 89.3093 192.562 90.12V95H191.426V90.232C191.426 89.3467 191.202 88.68 190.754 88.232C190.317 87.7733 189.698 87.544 188.898 87.544C188.301 87.544 187.778 87.6667 187.33 87.912C186.893 88.1467 186.552 88.4933 186.306 88.952C186.072 89.4 185.954 89.944 185.954 90.584V95H184.818V86.6H185.906V88.904L185.73 88.472C185.997 87.864 186.424 87.3893 187.01 87.048C187.597 86.696 188.296 86.52 189.106 86.52ZM198.287 95.08C197.498 95.08 196.89 94.8667 196.463 94.44C196.036 94.0133 195.823 93.4107 195.823 92.632V84.744H196.959V92.568C196.959 93.0587 197.082 93.4373 197.327 93.704C197.583 93.9707 197.946 94.104 198.415 94.104C198.916 94.104 199.332 93.96 199.663 93.672L200.063 94.488C199.839 94.6907 199.567 94.84 199.247 94.936C198.938 95.032 198.618 95.08 198.287 95.08ZM194.319 87.544V86.6H199.519V87.544H194.319ZM205.402 95.08C204.527 95.08 203.759 94.8987 203.098 94.536C202.437 94.1627 201.919 93.656 201.546 93.016C201.173 92.3653 200.986 91.624 200.986 90.792C200.986 89.96 201.162 89.224 201.514 88.584C201.877 87.944 202.367 87.4427 202.986 87.08C203.615 86.7067 204.319 86.52 205.098 86.52C205.887 86.52 206.586 86.7013 207.194 87.064C207.813 87.416 208.298 87.9173 208.65 88.568C209.002 89.208 209.178 89.9493 209.178 90.792C209.178 90.8453 209.173 90.904 209.162 90.968C209.162 91.0213 209.162 91.08 209.162 91.144H201.85V90.296H208.554L208.106 90.632C208.106 90.024 207.973 89.4853 207.706 89.016C207.45 88.536 207.098 88.1627 206.65 87.896C206.202 87.6293 205.685 87.496 205.098 87.496C204.522 87.496 204.005 87.6293 203.546 87.896C203.087 88.1627 202.73 88.536 202.474 89.016C202.218 89.496 202.09 90.0453 202.09 90.664V90.84C202.09 91.48 202.229 92.0453 202.506 92.536C202.794 93.016 203.189 93.3947 203.69 93.672C204.202 93.9387 204.783 94.072 205.434 94.072C205.946 94.072 206.421 93.9813 206.858 93.8C207.306 93.6187 207.69 93.3413 208.01 92.968L208.65 93.704C208.277 94.152 207.807 94.4933 207.242 94.728C206.687 94.9627 206.074 95.08 205.402 95.08ZM215.778 86.52C216.461 86.52 217.058 86.6533 217.57 86.92C218.093 87.176 218.498 87.5707 218.786 88.104C219.085 88.6373 219.234 89.3093 219.234 90.12V95H218.098V90.232C218.098 89.3467 217.874 88.68 217.426 88.232C216.989 87.7733 216.37 87.544 215.57 87.544C214.973 87.544 214.45 87.6667 214.002 87.912C213.565 88.1467 213.224 88.4933 212.978 88.952C212.744 89.4 212.626 89.944 212.626 90.584V95H211.49V86.6H212.578V88.904L212.402 88.472C212.669 87.864 213.096 87.3893 213.682 87.048C214.269 86.696 214.968 86.52 215.778 86.52ZM225.647 95.08C224.847 95.08 224.127 94.8987 223.487 94.536C222.857 94.1733 222.361 93.672 221.999 93.032C221.636 92.3813 221.455 91.6347 221.455 90.792C221.455 89.9387 221.636 89.192 221.999 88.552C222.361 87.912 222.857 87.416 223.487 87.064C224.127 86.7013 224.847 86.52 225.647 86.52C226.383 86.52 227.039 86.6853 227.615 87.016C228.201 87.3467 228.665 87.832 229.007 88.472C229.359 89.1013 229.535 89.8747 229.535 90.792C229.535 91.6987 229.364 92.472 229.023 93.112C228.681 93.752 228.217 94.2427 227.631 94.584C227.055 94.9147 226.393 95.08 225.647 95.08ZM225.727 94.072C226.324 94.072 226.857 93.9387 227.327 93.672C227.807 93.3947 228.18 93.0107 228.447 92.52C228.724 92.0187 228.863 91.4427 228.863 90.792C228.863 90.1307 228.724 89.5547 228.447 89.064C228.18 88.5733 227.807 88.1947 227.327 87.928C226.857 87.6507 226.324 87.512 225.727 87.512C225.14 87.512 224.612 87.6507 224.143 87.928C223.673 88.1947 223.3 88.5733 223.023 89.064C222.745 89.5547 222.607 90.1307 222.607 90.792C222.607 91.4427 222.745 92.0187 223.023 92.52C223.3 93.0107 223.673 93.3947 224.143 93.672C224.612 93.9387 225.14 94.072 225.727 94.072ZM228.895 95V92.472L229.007 90.776L228.847 89.08V83.128H229.983V95H228.895ZM238.63 88.808H244.55V89.816H238.63V88.808ZM238.758 93.976H245.494V95H237.574V83.8H245.254V84.824H238.758V93.976ZM252.325 86.52C253.008 86.52 253.605 86.6533 254.117 86.92C254.64 87.176 255.045 87.5707 255.333 88.104C255.632 88.6373 255.781 89.3093 255.781 90.12V95H254.645V90.232C254.645 89.3467 254.421 88.68 253.973 88.232C253.536 87.7733 252.917 87.544 252.117 87.544C251.52 87.544 250.997 87.6667 250.549 87.912C250.112 88.1467 249.77 88.4933 249.525 88.952C249.29 89.4 249.173 89.944 249.173 90.584V95H248.037V86.6H249.125V88.904L248.949 88.472C249.216 87.864 249.642 87.3893 250.229 87.048C250.816 86.696 251.514 86.52 252.325 86.52ZM262.434 98.184C261.666 98.184 260.93 98.072 260.226 97.848C259.522 97.624 258.951 97.304 258.514 96.888L259.09 96.024C259.484 96.376 259.97 96.6533 260.546 96.856C261.132 97.0693 261.751 97.176 262.402 97.176C263.468 97.176 264.252 96.9253 264.754 96.424C265.255 95.9333 265.506 95.1653 265.506 94.12V92.024L265.666 90.584L265.554 89.144V86.6H266.642V93.976C266.642 95.4267 266.284 96.488 265.57 97.16C264.866 97.8427 263.82 98.184 262.434 98.184ZM262.226 94.68C261.426 94.68 260.706 94.5093 260.066 94.168C259.426 93.816 258.919 93.3307 258.546 92.712C258.183 92.0933 258.002 91.384 258.002 90.584C258.002 89.784 258.183 89.08 258.546 88.472C258.919 87.8533 259.426 87.3733 260.066 87.032C260.706 86.6907 261.426 86.52 262.226 86.52C262.972 86.52 263.644 86.6747 264.242 86.984C264.839 87.2933 265.314 87.752 265.666 88.36C266.018 88.968 266.194 89.7093 266.194 90.584C266.194 91.4587 266.018 92.2 265.666 92.808C265.314 93.416 264.839 93.88 264.242 94.2C263.644 94.52 262.972 94.68 262.226 94.68ZM262.338 93.672C262.956 93.672 263.506 93.544 263.986 93.288C264.466 93.0213 264.844 92.6587 265.122 92.2C265.399 91.7307 265.538 91.192 265.538 90.584C265.538 89.976 265.399 89.4427 265.122 88.984C264.844 88.5253 264.466 88.168 263.986 87.912C263.506 87.6453 262.956 87.512 262.338 87.512C261.73 87.512 261.18 87.6453 260.69 87.912C260.21 88.168 259.831 88.5253 259.554 88.984C259.287 89.4427 259.154 89.976 259.154 90.584C259.154 91.192 259.287 91.7307 259.554 92.2C259.831 92.6587 260.21 93.0213 260.69 93.288C261.18 93.544 261.73 93.672 262.338 93.672ZM269.803 95V86.6H270.939V95H269.803ZM270.379 84.744C270.144 84.744 269.947 84.664 269.787 84.504C269.627 84.344 269.547 84.152 269.547 83.928C269.547 83.704 269.627 83.5173 269.787 83.368C269.947 83.208 270.144 83.128 270.379 83.128C270.613 83.128 270.811 83.2027 270.971 83.352C271.131 83.5013 271.211 83.688 271.211 83.912C271.211 84.1467 271.131 84.344 270.971 84.504C270.821 84.664 270.624 84.744 270.379 84.744ZM278.388 86.52C279.07 86.52 279.668 86.6533 280.18 86.92C280.702 87.176 281.108 87.5707 281.396 88.104C281.694 88.6373 281.844 89.3093 281.844 90.12V95H280.708V90.232C280.708 89.3467 280.484 88.68 280.036 88.232C279.598 87.7733 278.98 87.544 278.18 87.544C277.582 87.544 277.06 87.6667 276.612 87.912C276.174 88.1467 275.833 88.4933 275.588 88.952C275.353 89.4 275.236 89.944 275.236 90.584V95H274.1V86.6H275.188V88.904L275.012 88.472C275.278 87.864 275.705 87.3893 276.292 87.048C276.878 86.696 277.577 86.52 278.388 86.52ZM288.48 95.08C287.605 95.08 286.837 94.8987 286.176 94.536C285.515 94.1627 284.997 93.656 284.624 93.016C284.251 92.3653 284.064 91.624 284.064 90.792C284.064 89.96 284.24 89.224 284.592 88.584C284.955 87.944 285.445 87.4427 286.064 87.08C286.693 86.7067 287.397 86.52 288.176 86.52C288.965 86.52 289.664 86.7013 290.272 87.064C290.891 87.416 291.376 87.9173 291.728 88.568C292.08 89.208 292.256 89.9493 292.256 90.792C292.256 90.8453 292.251 90.904 292.24 90.968C292.24 91.0213 292.24 91.08 292.24 91.144H284.928V90.296H291.632L291.184 90.632C291.184 90.024 291.051 89.4853 290.784 89.016C290.528 88.536 290.176 88.1627 289.728 87.896C289.28 87.6293 288.763 87.496 288.176 87.496C287.6 87.496 287.083 87.6293 286.624 87.896C286.165 88.1627 285.808 88.536 285.552 89.016C285.296 89.496 285.168 90.0453 285.168 90.664V90.84C285.168 91.48 285.307 92.0453 285.584 92.536C285.872 93.016 286.267 93.3947 286.768 93.672C287.28 93.9387 287.861 94.072 288.512 94.072C289.024 94.072 289.499 93.9813 289.936 93.8C290.384 93.6187 290.768 93.3413 291.088 92.968L291.728 93.704C291.355 94.152 290.885 94.4933 290.32 94.728C289.765 94.9627 289.152 95.08 288.48 95.08ZM298.136 95.08C297.262 95.08 296.494 94.8987 295.832 94.536C295.171 94.1627 294.654 93.656 294.28 93.016C293.907 92.3653 293.72 91.624 293.72 90.792C293.72 89.96 293.896 89.224 294.248 88.584C294.611 87.944 295.102 87.4427 295.72 87.08C296.35 86.7067 297.054 86.52 297.832 86.52C298.622 86.52 299.32 86.7013 299.928 87.064C300.547 87.416 301.032 87.9173 301.384 88.568C301.736 89.208 301.912 89.9493 301.912 90.792C301.912 90.8453 301.907 90.904 301.896 90.968C301.896 91.0213 301.896 91.08 301.896 91.144H294.584V90.296H301.288L300.84 90.632C300.84 90.024 300.707 89.4853 300.44 89.016C300.184 88.536 299.832 88.1627 299.384 87.896C298.936 87.6293 298.419 87.496 297.832 87.496C297.256 87.496 296.739 87.6293 296.28 87.896C295.822 88.1627 295.464 88.536 295.208 89.016C294.952 89.496 294.824 90.0453 294.824 90.664V90.84C294.824 91.48 294.963 92.0453 295.24 92.536C295.528 93.016 295.923 93.3947 296.424 93.672C296.936 93.9387 297.518 94.072 298.168 94.072C298.68 94.072 299.155 93.9813 299.592 93.8C300.04 93.6187 300.424 93.3413 300.744 92.968L301.384 93.704C301.011 94.152 300.542 94.4933 299.976 94.728C299.422 94.9627 298.808 95.08 298.136 95.08ZM304.225 95V86.6H305.313V88.888L305.201 88.488C305.435 87.848 305.83 87.3627 306.385 87.032C306.939 86.6907 307.627 86.52 308.449 86.52V87.624C308.406 87.624 308.363 87.624 308.321 87.624C308.278 87.6133 308.235 87.608 308.193 87.608C307.307 87.608 306.614 87.88 306.113 88.424C305.611 88.9573 305.361 89.72 305.361 90.712V95H304.225Z" fill="white"/>
<circle cx="871.5" cy="279.5" r="220.5" stroke="white" stroke-opacity="0.02" stroke-width="50"/>
<circle cx="859" cy="267" r="278" stroke="url(#paint1_radial_5_33)" stroke-opacity="0.5" stroke-width="40"/>
<g filter="url(#filter0_b_5_33)">
<rect x="632" y="39" width="174" height="96" rx="8" fill="url(#paint2_linear_5_33)" fill-opacity="0.3"/>
<path d="M677.028 86V68.08L678.988 70.04H673.108V66.4H681.564V86H677.028ZM691.325 86.336C689.962 86.336 688.609 86.1587 687.265 85.804C685.921 85.4307 684.782 84.908 683.849 84.236L685.613 80.764C686.36 81.3053 687.228 81.7347 688.217 82.052C689.206 82.3693 690.205 82.528 691.213 82.528C692.352 82.528 693.248 82.304 693.901 81.856C694.554 81.408 694.881 80.792 694.881 80.008C694.881 79.2613 694.592 78.6733 694.013 78.244C693.434 77.8147 692.501 77.6 691.213 77.6H689.141V74.604L694.601 68.416L695.105 70.04H684.829V66.4H698.549V69.34L693.117 75.528L690.821 74.212H692.137C694.545 74.212 696.365 74.7533 697.597 75.836C698.829 76.9187 699.445 78.3093 699.445 80.008C699.445 81.1093 699.156 82.1453 698.577 83.116C697.998 84.068 697.112 84.8427 695.917 85.44C694.722 86.0373 693.192 86.336 691.325 86.336ZM704.115 86.224C703.369 86.224 702.725 85.972 702.183 85.468C701.661 84.9453 701.399 84.2827 701.399 83.48C701.399 82.6773 701.661 82.0333 702.183 81.548C702.725 81.044 703.369 80.792 704.115 80.792C704.881 80.792 705.525 81.044 706.047 81.548C706.57 82.0333 706.831 82.6773 706.831 83.48C706.831 84.2827 706.57 84.9453 706.047 85.468C705.525 85.972 704.881 86.224 704.115 86.224ZM708.643 81.884V78.832L717.883 66.4H722.643L713.599 78.832L711.387 78.188H726.815V81.884H708.643ZM719.199 86V81.884L719.339 78.188V74.52H723.623V86H719.199ZM736.572 86.336C734.967 86.336 733.529 85.944 732.26 85.16C730.991 84.3573 729.992 83.2 729.264 81.688C728.536 80.176 728.172 78.3467 728.172 76.2C728.172 74.0533 728.536 72.224 729.264 70.712C729.992 69.2 730.991 68.052 732.26 67.268C733.529 66.4653 734.967 66.064 736.572 66.064C738.196 66.064 739.633 66.4653 740.884 67.268C742.153 68.052 743.152 69.2 743.88 70.712C744.608 72.224 744.972 74.0533 744.972 76.2C744.972 78.3467 744.608 80.176 743.88 81.688C743.152 83.2 742.153 84.3573 740.884 85.16C739.633 85.944 738.196 86.336 736.572 86.336ZM736.572 82.5C737.337 82.5 738 82.2853 738.56 81.856C739.139 81.4267 739.587 80.7453 739.904 79.812C740.24 78.8787 740.408 77.6747 740.408 76.2C740.408 74.7253 740.24 73.5213 739.904 72.588C739.587 71.6547 739.139 70.9733 738.56 70.544C738 70.1147 737.337 69.9 736.572 69.9C735.825 69.9 735.163 70.1147 734.584 70.544C734.024 70.9733 733.576 71.6547 733.24 72.588C732.923 73.5213 732.764 74.7253 732.764 76.2C732.764 77.6747 732.923 78.8787 733.24 79.812C733.576 80.7453 734.024 81.4267 734.584 81.856C735.163 82.2853 735.825 82.5 736.572 82.5ZM755.576 86.336C753.971 86.336 752.533 85.944 751.264 85.16C749.995 84.3573 748.996 83.2 748.268 81.688C747.54 80.176 747.176 78.3467 747.176 76.2C747.176 74.0533 747.54 72.224 748.268 70.712C748.996 69.2 749.995 68.052 751.264 67.268C752.533 66.4653 753.971 66.064 755.576 66.064C757.2 66.064 758.637 66.4653 759.888 67.268C761.157 68.052 762.156 69.2 762.884 70.712C763.612 72.224 763.976 74.0533 763.976 76.2C763.976 78.3467 763.612 80.176 762.884 81.688C762.156 83.2 761.157 84.3573 759.888 85.16C758.637 85.944 757.2 86.336 755.576 86.336ZM755.576 82.5C756.341 82.5 757.004 82.2853 757.564 81.856C758.143 81.4267 758.591 80.7453 758.908 79.812C759.244 78.8787 759.412 77.6747 759.412 76.2C759.412 74.7253 759.244 73.5213 758.908 72.588C758.591 71.6547 758.143 70.9733 757.564 70.544C757.004 70.1147 756.341 69.9 755.576 69.9C754.829 69.9 754.167 70.1147 753.588 70.544C753.028 70.9733 752.58 71.6547 752.244 72.588C751.927 73.5213 751.768 74.7253 751.768 76.2C751.768 77.6747 751.927 78.8787 752.244 79.812C752.58 80.7453 753.028 81.4267 753.588 81.856C754.167 82.2853 754.829 82.5 755.576 82.5Z" fill="white"/>
<path d="M662.153 102.52C662.836 102.52 663.433 102.653 663.945 102.92C664.468 103.176 664.873 103.571 665.161 104.104C665.46 104.637 665.609 105.309 665.609 106.12V111H664.473V106.232C664.473 105.347 664.249 104.68 663.801 104.232C663.364 103.773 662.745 103.544 661.945 103.544C661.348 103.544 660.825 103.667 660.377 103.912C659.94 104.147 659.599 104.493 659.353 104.952C659.119 105.4 659.001 105.944 659.001 106.584V111H657.865V99.128H659.001V104.904L658.777 104.472C659.044 103.864 659.471 103.389 660.057 103.048C660.644 102.696 661.343 102.52 662.153 102.52ZM672.102 111.08C671.291 111.08 670.56 110.899 669.91 110.536C669.27 110.163 668.763 109.656 668.39 109.016C668.016 108.365 667.83 107.624 667.83 106.792C667.83 105.949 668.016 105.208 668.39 104.568C668.763 103.928 669.27 103.427 669.91 103.064C670.55 102.701 671.28 102.52 672.102 102.52C672.934 102.52 673.67 102.701 674.31 103.064C674.96 103.427 675.467 103.928 675.83 104.568C676.203 105.208 676.39 105.949 676.39 106.792C676.39 107.624 676.203 108.365 675.83 109.016C675.467 109.656 674.96 110.163 674.31 110.536C673.659 110.899 672.923 111.08 672.102 111.08ZM672.102 110.072C672.71 110.072 673.248 109.939 673.718 109.672C674.187 109.395 674.555 109.011 674.822 108.52C675.099 108.019 675.238 107.443 675.238 106.792C675.238 106.131 675.099 105.555 674.822 105.064C674.555 104.573 674.187 104.195 673.718 103.928C673.248 103.651 672.715 103.512 672.118 103.512C671.52 103.512 670.987 103.651 670.518 103.928C670.048 104.195 669.675 104.573 669.398 105.064C669.12 105.555 668.982 106.131 668.982 106.792C668.982 107.443 669.12 108.019 669.398 108.52C669.675 109.011 670.048 109.395 670.518 109.672C670.987 109.939 671.515 110.072 672.102 110.072ZM682.181 111.08C681.466 111.08 680.842 110.947 680.309 110.68C679.776 110.413 679.36 110.013 679.061 109.48C678.773 108.947 678.629 108.28 678.629 107.48V102.6H679.765V107.352C679.765 108.248 679.984 108.925 680.421 109.384C680.869 109.832 681.493 110.056 682.293 110.056C682.88 110.056 683.386 109.939 683.813 109.704C684.25 109.459 684.581 109.107 684.805 108.648C685.04 108.189 685.157 107.64 685.157 107V102.6H686.293V111H685.205V108.696L685.381 109.112C685.114 109.731 684.698 110.216 684.133 110.568C683.578 110.909 682.928 111.08 682.181 111.08ZM689.459 111V102.6H690.547V104.888L690.435 104.488C690.67 103.848 691.064 103.363 691.619 103.032C692.174 102.691 692.862 102.52 693.683 102.52V103.624C693.64 103.624 693.598 103.624 693.555 103.624C693.512 103.613 693.47 103.608 693.427 103.608C692.542 103.608 691.848 103.88 691.347 104.424C690.846 104.957 690.595 105.72 690.595 106.712V111H689.459ZM698.106 111.08C697.412 111.08 696.756 110.984 696.138 110.792C695.519 110.589 695.034 110.339 694.682 110.04L695.194 109.144C695.535 109.4 695.972 109.624 696.506 109.816C697.039 109.997 697.599 110.088 698.186 110.088C698.986 110.088 699.562 109.965 699.914 109.72C700.266 109.464 700.442 109.128 700.442 108.712C700.442 108.403 700.34 108.163 700.138 107.992C699.946 107.811 699.69 107.677 699.37 107.592C699.05 107.496 698.692 107.416 698.298 107.352C697.903 107.288 697.508 107.213 697.114 107.128C696.73 107.043 696.378 106.92 696.058 106.76C695.738 106.589 695.476 106.36 695.274 106.072C695.082 105.784 694.986 105.4 694.986 104.92C694.986 104.461 695.114 104.051 695.37 103.688C695.626 103.325 695.999 103.043 696.49 102.84C696.991 102.627 697.599 102.52 698.314 102.52C698.858 102.52 699.402 102.595 699.946 102.744C700.49 102.883 700.938 103.069 701.29 103.304L700.794 104.216C700.42 103.96 700.02 103.779 699.594 103.672C699.167 103.555 698.74 103.496 698.314 103.496C697.556 103.496 696.996 103.629 696.634 103.896C696.282 104.152 696.106 104.483 696.106 104.888C696.106 105.208 696.202 105.459 696.394 105.64C696.596 105.821 696.858 105.965 697.178 106.072C697.508 106.168 697.866 106.248 698.25 106.312C698.644 106.376 699.034 106.456 699.418 106.552C699.812 106.637 700.17 106.76 700.49 106.92C700.82 107.069 701.082 107.288 701.274 107.576C701.476 107.853 701.578 108.221 701.578 108.68C701.578 109.171 701.439 109.597 701.162 109.96C700.895 110.312 700.5 110.589 699.978 110.792C699.466 110.984 698.842 111.08 698.106 111.08ZM711.274 111.08C710.463 111.08 709.732 110.899 709.082 110.536C708.442 110.163 707.935 109.656 707.562 109.016C707.188 108.365 707.002 107.624 707.002 106.792C707.002 105.949 707.188 105.208 707.562 104.568C707.935 103.928 708.442 103.427 709.082 103.064C709.722 102.701 710.452 102.52 711.274 102.52C712.106 102.52 712.842 102.701 713.482 103.064C714.132 103.427 714.639 103.928 715.002 104.568C715.375 105.208 715.562 105.949 715.562 106.792C715.562 107.624 715.375 108.365 715.002 109.016C714.639 109.656 714.132 110.163 713.482 110.536C712.831 110.899 712.095 111.08 711.274 111.08ZM711.274 110.072C711.882 110.072 712.42 109.939 712.89 109.672C713.359 109.395 713.727 109.011 713.994 108.52C714.271 108.019 714.41 107.443 714.41 106.792C714.41 106.131 714.271 105.555 713.994 105.064C713.727 104.573 713.359 104.195 712.89 103.928C712.42 103.651 711.887 103.512 711.29 103.512C710.692 103.512 710.159 103.651 709.69 103.928C709.22 104.195 708.847 104.573 708.57 105.064C708.292 105.555 708.154 106.131 708.154 106.792C708.154 107.443 708.292 108.019 708.57 108.52C708.847 109.011 709.22 109.395 709.69 109.672C710.159 109.939 710.687 110.072 711.274 110.072ZM718.073 111V101.544C718.073 100.797 718.292 100.195 718.729 99.736C719.166 99.2773 719.796 99.048 720.617 99.048C720.937 99.048 721.246 99.0907 721.545 99.176C721.844 99.2613 722.094 99.3947 722.297 99.576L721.913 100.424C721.753 100.285 721.566 100.184 721.353 100.12C721.14 100.045 720.91 100.008 720.665 100.008C720.185 100.008 719.817 100.141 719.561 100.408C719.305 100.675 719.177 101.069 719.177 101.592V102.872L719.209 103.4V111H718.073ZM716.569 103.544V102.6H721.769V103.544H716.569ZM730.978 111.08C730.146 111.08 729.4 110.899 728.738 110.536C728.088 110.163 727.576 109.656 727.202 109.016C726.829 108.365 726.642 107.624 726.642 106.792C726.642 105.949 726.829 105.208 727.202 104.568C727.576 103.928 728.088 103.427 728.738 103.064C729.4 102.701 730.146 102.52 730.978 102.52C731.693 102.52 732.338 102.659 732.914 102.936C733.49 103.213 733.944 103.629 734.274 104.184L733.426 104.76C733.138 104.333 732.781 104.019 732.354 103.816C731.928 103.613 731.464 103.512 730.962 103.512C730.365 103.512 729.826 103.651 729.346 103.928C728.866 104.195 728.488 104.573 728.21 105.064C727.933 105.555 727.794 106.131 727.794 106.792C727.794 107.453 727.933 108.029 728.21 108.52C728.488 109.011 728.866 109.395 729.346 109.672C729.826 109.939 730.365 110.072 730.962 110.072C731.464 110.072 731.928 109.971 732.354 109.768C732.781 109.565 733.138 109.256 733.426 108.84L734.274 109.416C733.944 109.96 733.49 110.376 732.914 110.664C732.338 110.941 731.693 111.08 730.978 111.08ZM739.789 111.08C738.979 111.08 738.248 110.899 737.597 110.536C736.957 110.163 736.451 109.656 736.077 109.016C735.704 108.365 735.517 107.624 735.517 106.792C735.517 105.949 735.704 105.208 736.077 104.568C736.451 103.928 736.957 103.427 737.597 103.064C738.237 102.701 738.968 102.52 739.789 102.52C740.621 102.52 741.357 102.701 741.997 103.064C742.648 103.427 743.155 103.928 743.517 104.568C743.891 105.208 744.077 105.949 744.077 106.792C744.077 107.624 743.891 108.365 743.517 109.016C743.155 109.656 742.648 110.163 741.997 110.536C741.347 110.899 740.611 111.08 739.789 111.08ZM739.789 110.072C740.397 110.072 740.936 109.939 741.405 109.672C741.875 109.395 742.243 109.011 742.509 108.52C742.787 108.019 742.925 107.443 742.925 106.792C742.925 106.131 742.787 105.555 742.509 105.064C742.243 104.573 741.875 104.195 741.405 103.928C740.936 103.651 740.403 103.512 739.805 103.512C739.208 103.512 738.675 103.651 738.205 103.928C737.736 104.195 737.363 104.573 737.085 105.064C736.808 105.555 736.669 106.131 736.669 106.792C736.669 107.443 736.808 108.019 737.085 108.52C737.363 109.011 737.736 109.395 738.205 109.672C738.675 109.939 739.203 110.072 739.789 110.072ZM749.74 111.08C748.94 111.08 748.22 110.899 747.58 110.536C746.951 110.173 746.455 109.672 746.092 109.032C745.73 108.381 745.548 107.635 745.548 106.792C745.548 105.939 745.73 105.192 746.092 104.552C746.455 103.912 746.951 103.416 747.58 103.064C748.22 102.701 748.94 102.52 749.74 102.52C750.476 102.52 751.132 102.685 751.708 103.016C752.295 103.347 752.759 103.832 753.1 104.472C753.452 105.101 753.628 105.875 753.628 106.792C753.628 107.699 753.458 108.472 753.116 109.112C752.775 109.752 752.311 110.243 751.724 110.584C751.148 110.915 750.487 111.08 749.74 111.08ZM749.82 110.072C750.418 110.072 750.951 109.939 751.42 109.672C751.9 109.395 752.274 109.011 752.54 108.52C752.818 108.019 752.956 107.443 752.956 106.792C752.956 106.131 752.818 105.555 752.54 105.064C752.274 104.573 751.9 104.195 751.42 103.928C750.951 103.651 750.418 103.512 749.82 103.512C749.234 103.512 748.706 103.651 748.236 103.928C747.767 104.195 747.394 104.573 747.116 105.064C746.839 105.555 746.7 106.131 746.7 106.792C746.7 107.443 746.839 108.019 747.116 108.52C747.394 109.011 747.767 109.395 748.236 109.672C748.706 109.939 749.234 110.072 749.82 110.072ZM752.988 111V108.472L753.1 106.776L752.94 105.08V99.128H754.076V111H752.988ZM757.24 111V102.6H758.376V111H757.24ZM757.816 100.744C757.582 100.744 757.384 100.664 757.224 100.504C757.064 100.344 756.984 100.152 756.984 99.928C756.984 99.704 757.064 99.5173 757.224 99.368C757.384 99.208 757.582 99.128 757.816 99.128C758.051 99.128 758.248 99.2027 758.408 99.352C758.568 99.5013 758.648 99.688 758.648 99.912C758.648 100.147 758.568 100.344 758.408 100.504C758.259 100.664 758.062 100.744 757.816 100.744ZM765.825 102.52C766.508 102.52 767.105 102.653 767.617 102.92C768.14 103.176 768.545 103.571 768.833 104.104C769.132 104.637 769.281 105.309 769.281 106.12V111H768.145V106.232C768.145 105.347 767.921 104.68 767.473 104.232C767.036 103.773 766.417 103.544 765.617 103.544C765.02 103.544 764.497 103.667 764.049 103.912C763.612 104.147 763.27 104.493 763.025 104.952C762.79 105.4 762.673 105.944 762.673 106.584V111H761.537V102.6H762.625V104.904L762.449 104.472C762.716 103.864 763.142 103.389 763.729 103.048C764.316 102.696 765.014 102.52 765.825 102.52ZM775.934 114.184C775.166 114.184 774.43 114.072 773.726 113.848C773.022 113.624 772.451 113.304 772.014 112.888L772.59 112.024C772.984 112.376 773.47 112.653 774.046 112.856C774.632 113.069 775.251 113.176 775.902 113.176C776.968 113.176 777.752 112.925 778.254 112.424C778.755 111.933 779.006 111.165 779.006 110.12V108.024L779.166 106.584L779.054 105.144V102.6H780.142V109.976C780.142 111.427 779.784 112.488 779.07 113.16C778.366 113.843 777.32 114.184 775.934 114.184ZM775.726 110.68C774.926 110.68 774.206 110.509 773.566 110.168C772.926 109.816 772.419 109.331 772.046 108.712C771.683 108.093 771.502 107.384 771.502 106.584C771.502 105.784 771.683 105.08 772.046 104.472C772.419 103.853 772.926 103.373 773.566 103.032C774.206 102.691 774.926 102.52 775.726 102.52C776.472 102.52 777.144 102.675 777.742 102.984C778.339 103.293 778.814 103.752 779.166 104.36C779.518 104.968 779.694 105.709 779.694 106.584C779.694 107.459 779.518 108.2 779.166 108.808C778.814 109.416 778.339 109.88 777.742 110.2C777.144 110.52 776.472 110.68 775.726 110.68ZM775.838 109.672C776.456 109.672 777.006 109.544 777.486 109.288C777.966 109.021 778.344 108.659 778.622 108.2C778.899 107.731 779.038 107.192 779.038 106.584C779.038 105.976 778.899 105.443 778.622 104.984C778.344 104.525 777.966 104.168 777.486 103.912C777.006 103.645 776.456 103.512 775.838 103.512C775.23 103.512 774.68 103.645 774.19 103.912C773.71 104.168 773.331 104.525 773.054 104.984C772.787 105.443 772.654 105.976 772.654 106.584C772.654 107.192 772.787 107.731 773.054 108.2C773.331 108.659 773.71 109.021 774.19 109.288C774.68 109.544 775.23 109.672 775.838 109.672Z" fill="white"/>
<rect x="632.25" y="39.25" width="173.5" height="95.5" rx="7.75" stroke="white" stroke-opacity="0.1" stroke-width="0.5"/>
</g>
<g filter="url(#filter1_b_5_33)">
<rect x="496" y="145" width="147" height="96" rx="8" fill="url(#paint3_linear_5_33)" fill-opacity="0.3"/>
<path d="M558.481 192V174.08L560.441 176.04H554.561V172.4H563.017V192H558.481ZM566.198 187.884V184.832L575.438 172.4H580.198L571.154 184.832L568.942 184.188H584.37V187.884H566.198ZM576.754 192V187.884L576.894 184.188V180.52H581.178V192H576.754Z" fill="white"/>
<path d="M522.022 217V208.6H523.11V210.888L522.998 210.488C523.232 209.848 523.627 209.363 524.182 209.032C524.736 208.691 525.424 208.52 526.246 208.52V209.624C526.203 209.624 526.16 209.624 526.118 209.624C526.075 209.613 526.032 209.608 525.99 209.608C525.104 209.608 524.411 209.88 523.91 210.424C523.408 210.957 523.158 211.72 523.158 212.712V217H522.022ZM531.808 217.08C530.934 217.08 530.166 216.899 529.504 216.536C528.843 216.163 528.326 215.656 527.952 215.016C527.579 214.365 527.392 213.624 527.392 212.792C527.392 211.96 527.568 211.224 527.92 210.584C528.283 209.944 528.774 209.443 529.392 209.08C530.022 208.707 530.726 208.52 531.504 208.52C532.294 208.52 532.992 208.701 533.6 209.064C534.219 209.416 534.704 209.917 535.056 210.568C535.408 211.208 535.584 211.949 535.584 212.792C535.584 212.845 535.579 212.904 535.568 212.968C535.568 213.021 535.568 213.08 535.568 213.144H528.256V212.296H534.96L534.512 212.632C534.512 212.024 534.379 211.485 534.112 211.016C533.856 210.536 533.504 210.163 533.056 209.896C532.608 209.629 532.091 209.496 531.504 209.496C530.928 209.496 530.411 209.629 529.952 209.896C529.494 210.163 529.136 210.536 528.88 211.016C528.624 211.496 528.496 212.045 528.496 212.664V212.84C528.496 213.48 528.635 214.045 528.912 214.536C529.2 215.016 529.595 215.395 530.096 215.672C530.608 215.939 531.19 216.072 531.84 216.072C532.352 216.072 532.827 215.981 533.264 215.8C533.712 215.619 534.096 215.341 534.416 214.968L535.056 215.704C534.683 216.152 534.214 216.493 533.648 216.728C533.094 216.963 532.48 217.08 531.808 217.08ZM542.926 217V215.144L542.878 214.84V211.736C542.878 211.021 542.675 210.472 542.27 210.088C541.875 209.704 541.283 209.512 540.494 209.512C539.95 209.512 539.433 209.603 538.942 209.784C538.451 209.965 538.035 210.205 537.694 210.504L537.182 209.656C537.609 209.293 538.121 209.016 538.718 208.824C539.315 208.621 539.945 208.52 540.606 208.52C541.694 208.52 542.531 208.792 543.118 209.336C543.715 209.869 544.014 210.685 544.014 211.784V217H542.926ZM540.03 217.08C539.401 217.08 538.851 216.979 538.382 216.776C537.923 216.563 537.571 216.275 537.326 215.912C537.081 215.539 536.958 215.112 536.958 214.632C536.958 214.195 537.059 213.8 537.262 213.448C537.475 213.085 537.817 212.797 538.286 212.584C538.766 212.36 539.406 212.248 540.206 212.248H543.102V213.096H540.238C539.427 213.096 538.862 213.24 538.542 213.528C538.233 213.816 538.078 214.173 538.078 214.6C538.078 215.08 538.265 215.464 538.638 215.752C539.011 216.04 539.534 216.184 540.206 216.184C540.846 216.184 541.395 216.04 541.854 215.752C542.323 215.453 542.665 215.027 542.878 214.472L543.134 215.256C542.921 215.811 542.547 216.253 542.014 216.584C541.491 216.915 540.83 217.08 540.03 217.08ZM547.1 217V205.128H548.236V217H547.1ZM559.92 217.08C559.195 217.08 558.539 216.915 557.952 216.584C557.365 216.243 556.896 215.757 556.544 215.128C556.203 214.488 556.032 213.709 556.032 212.792C556.032 211.875 556.203 211.101 556.544 210.472C556.885 209.832 557.349 209.347 557.936 209.016C558.523 208.685 559.184 208.52 559.92 208.52C560.72 208.52 561.435 208.701 562.064 209.064C562.704 209.416 563.205 209.917 563.568 210.568C563.931 211.208 564.112 211.949 564.112 212.792C564.112 213.645 563.931 214.392 563.568 215.032C563.205 215.672 562.704 216.173 562.064 216.536C561.435 216.899 560.72 217.08 559.92 217.08ZM555.584 220.104V208.6H556.672V211.128L556.56 212.808L556.72 214.504V220.104H555.584ZM559.84 216.072C560.437 216.072 560.971 215.939 561.44 215.672C561.909 215.395 562.283 215.011 562.56 214.52C562.837 214.019 562.976 213.443 562.976 212.792C562.976 212.141 562.837 211.571 562.56 211.08C562.283 210.589 561.909 210.205 561.44 209.928C560.971 209.651 560.437 209.512 559.84 209.512C559.243 209.512 558.704 209.651 558.224 209.928C557.755 210.205 557.381 210.589 557.104 211.08C556.837 211.571 556.704 212.141 556.704 212.792C556.704 213.443 556.837 214.019 557.104 214.52C557.381 215.011 557.755 215.395 558.224 215.672C558.704 215.939 559.243 216.072 559.84 216.072ZM566.428 217V208.6H567.516V210.888L567.404 210.488C567.638 209.848 568.033 209.363 568.588 209.032C569.142 208.691 569.83 208.52 570.652 208.52V209.624C570.609 209.624 570.566 209.624 570.524 209.624C570.481 209.613 570.438 209.608 570.396 209.608C569.51 209.608 568.817 209.88 568.316 210.424C567.814 210.957 567.564 211.72 567.564 212.712V217H566.428ZM576.071 217.08C575.26 217.08 574.529 216.899 573.879 216.536C573.239 216.163 572.732 215.656 572.359 215.016C571.985 214.365 571.799 213.624 571.799 212.792C571.799 211.949 571.985 211.208 572.359 210.568C572.732 209.928 573.239 209.427 573.879 209.064C574.519 208.701 575.249 208.52 576.071 208.52C576.903 208.52 577.639 208.701 578.279 209.064C578.929 209.427 579.436 209.928 579.799 210.568C580.172 211.208 580.359 211.949 580.359 212.792C580.359 213.624 580.172 214.365 579.799 215.016C579.436 215.656 578.929 216.163 578.279 216.536C577.628 216.899 576.892 217.08 576.071 217.08ZM576.071 216.072C576.679 216.072 577.217 215.939 577.687 215.672C578.156 215.395 578.524 215.011 578.791 214.52C579.068 214.019 579.207 213.443 579.207 212.792C579.207 212.131 579.068 211.555 578.791 211.064C578.524 210.573 578.156 210.195 577.687 209.928C577.217 209.651 576.684 209.512 576.087 209.512C575.489 209.512 574.956 209.651 574.487 209.928C574.017 210.195 573.644 210.573 573.367 211.064C573.089 211.555 572.951 212.131 572.951 212.792C572.951 213.443 573.089 214.019 573.367 214.52C573.644 215.011 574.017 215.395 574.487 215.672C574.956 215.939 575.484 216.072 576.071 216.072ZM581.43 220.184C581.088 220.184 580.763 220.136 580.454 220.04C580.134 219.955 579.867 219.821 579.654 219.64L580.054 218.776C580.395 219.064 580.832 219.208 581.366 219.208C581.814 219.208 582.155 219.075 582.39 218.808C582.635 218.541 582.758 218.147 582.758 217.624V208.6H583.894V217.624C583.894 218.403 583.68 219.021 583.254 219.48C582.838 219.949 582.23 220.184 581.43 220.184ZM583.334 206.744C583.099 206.744 582.902 206.664 582.742 206.504C582.582 206.344 582.502 206.152 582.502 205.928C582.502 205.704 582.582 205.517 582.742 205.368C582.902 205.208 583.099 205.128 583.334 205.128C583.568 205.128 583.766 205.203 583.926 205.352C584.086 205.501 584.166 205.688 584.166 205.912C584.166 206.147 584.086 206.344 583.926 206.504C583.776 206.664 583.579 206.744 583.334 206.744ZM590.636 217.08C589.762 217.08 588.994 216.899 588.332 216.536C587.671 216.163 587.154 215.656 586.78 215.016C586.407 214.365 586.22 213.624 586.22 212.792C586.22 211.96 586.396 211.224 586.748 210.584C587.111 209.944 587.602 209.443 588.22 209.08C588.85 208.707 589.554 208.52 590.332 208.52C591.122 208.52 591.82 208.701 592.428 209.064C593.047 209.416 593.532 209.917 593.884 210.568C594.236 211.208 594.412 211.949 594.412 212.792C594.412 212.845 594.407 212.904 594.396 212.968C594.396 213.021 594.396 213.08 594.396 213.144H587.084V212.296H593.788L593.34 212.632C593.34 212.024 593.207 211.485 592.94 211.016C592.684 210.536 592.332 210.163 591.884 209.896C591.436 209.629 590.919 209.496 590.332 209.496C589.756 209.496 589.239 209.629 588.78 209.896C588.322 210.163 587.964 210.536 587.708 211.016C587.452 211.496 587.324 212.045 587.324 212.664V212.84C587.324 213.48 587.463 214.045 587.74 214.536C588.028 215.016 588.423 215.395 588.924 215.672C589.436 215.939 590.018 216.072 590.668 216.072C591.18 216.072 591.655 215.981 592.092 215.8C592.54 215.619 592.924 215.341 593.244 214.968L593.884 215.704C593.511 216.152 593.042 216.493 592.476 216.728C591.922 216.963 591.308 217.08 590.636 217.08ZM600.213 217.08C599.381 217.08 598.634 216.899 597.973 216.536C597.322 216.163 596.81 215.656 596.437 215.016C596.063 214.365 595.877 213.624 595.877 212.792C595.877 211.949 596.063 211.208 596.437 210.568C596.81 209.928 597.322 209.427 597.973 209.064C598.634 208.701 599.381 208.52 600.213 208.52C600.927 208.52 601.573 208.659 602.149 208.936C602.725 209.213 603.178 209.629 603.509 210.184L602.661 210.76C602.373 210.333 602.015 210.019 601.589 209.816C601.162 209.613 600.698 209.512 600.197 209.512C599.599 209.512 599.061 209.651 598.581 209.928C598.101 210.195 597.722 210.573 597.445 211.064C597.167 211.555 597.029 212.131 597.029 212.792C597.029 213.453 597.167 214.029 597.445 214.52C597.722 215.011 598.101 215.395 598.581 215.672C599.061 215.939 599.599 216.072 600.197 216.072C600.698 216.072 601.162 215.971 601.589 215.768C602.015 215.565 602.373 215.256 602.661 214.84L603.509 215.416C603.178 215.96 602.725 216.376 602.149 216.664C601.573 216.941 600.927 217.08 600.213 217.08ZM608.49 217.08C607.701 217.08 607.093 216.867 606.666 216.44C606.239 216.013 606.026 215.411 606.026 214.632V206.744H607.162V214.568C607.162 215.059 607.285 215.437 607.53 215.704C607.786 215.971 608.149 216.104 608.618 216.104C609.119 216.104 609.535 215.96 609.866 215.672L610.266 216.488C610.042 216.691 609.77 216.84 609.45 216.936C609.141 217.032 608.821 217.08 608.49 217.08ZM604.522 209.544V208.6H609.722V209.544H604.522ZM614.59 217.08C613.897 217.08 613.241 216.984 612.622 216.792C612.003 216.589 611.518 216.339 611.166 216.04L611.678 215.144C612.019 215.4 612.457 215.624 612.99 215.816C613.523 215.997 614.083 216.088 614.67 216.088C615.47 216.088 616.046 215.965 616.398 215.72C616.75 215.464 616.926 215.128 616.926 214.712C616.926 214.403 616.825 214.163 616.622 213.992C616.43 213.811 616.174 213.677 615.854 213.592C615.534 213.496 615.177 213.416 614.782 213.352C614.387 213.288 613.993 213.213 613.598 213.128C613.214 213.043 612.862 212.92 612.542 212.76C612.222 212.589 611.961 212.36 611.758 212.072C611.566 211.784 611.47 211.4 611.47 210.92C611.47 210.461 611.598 210.051 611.854 209.688C612.11 209.325 612.483 209.043 612.974 208.84C613.475 208.627 614.083 208.52 614.798 208.52C615.342 208.52 615.886 208.595 616.43 208.744C616.974 208.883 617.422 209.069 617.774 209.304L617.278 210.216C616.905 209.96 616.505 209.779 616.078 209.672C615.651 209.555 615.225 209.496 614.798 209.496C614.041 209.496 613.481 209.629 613.118 209.896C612.766 210.152 612.59 210.483 612.59 210.888C612.59 211.208 612.686 211.459 612.878 211.64C613.081 211.821 613.342 211.965 613.662 212.072C613.993 212.168 614.35 212.248 614.734 212.312C615.129 212.376 615.518 212.456 615.902 212.552C616.297 212.637 616.654 212.76 616.974 212.92C617.305 213.069 617.566 213.288 617.758 213.576C617.961 213.853 618.062 214.221 618.062 214.68C618.062 215.171 617.923 215.597 617.646 215.96C617.379 216.312 616.985 216.589 616.462 216.792C615.95 216.984 615.326 217.08 614.59 217.08Z" fill="white"/>
<rect x="496.25" y="145.25" width="146.5" height="95.5" rx="7.75" stroke="white" stroke-opacity="0.1" stroke-width="0.5"/>
</g>
<g filter="url(#filter2_b_5_33)">
<rect x="653" y="145" width="153" height="96" rx="8" fill="url(#paint4_linear_5_33)" fill-opacity="0.3"/>
<path d="M679.584 192V172.4H684.12V192H679.584ZM697.619 176.712C698.814 176.712 699.878 176.955 700.811 177.44C701.763 177.907 702.51 178.635 703.051 179.624C703.593 180.595 703.863 181.845 703.863 183.376V192H699.495V184.048C699.495 182.835 699.225 181.939 698.683 181.36C698.161 180.781 697.414 180.492 696.443 180.492C695.753 180.492 695.127 180.641 694.567 180.94C694.026 181.22 693.597 181.659 693.279 182.256C692.981 182.853 692.831 183.619 692.831 184.552V192H688.463V176.936H692.635V181.108L691.851 179.848C692.393 178.84 693.167 178.065 694.175 177.524C695.183 176.983 696.331 176.712 697.619 176.712ZM708.355 192V176.6C708.355 174.901 708.859 173.548 709.867 172.54C710.875 171.513 712.312 171 714.179 171C714.813 171 715.42 171.065 715.999 171.196C716.596 171.327 717.1 171.532 717.511 171.812L716.363 174.976C716.12 174.808 715.849 174.677 715.551 174.584C715.252 174.491 714.935 174.444 714.599 174.444C713.964 174.444 713.469 174.631 713.115 175.004C712.779 175.359 712.611 175.9 712.611 176.628V178.028L712.723 179.904V192H708.355ZM706.031 180.632V177.272H716.475V180.632H706.031ZM718.939 192V176.936H723.307V192H718.939ZM721.123 174.836C720.32 174.836 719.667 174.603 719.163 174.136C718.659 173.669 718.407 173.091 718.407 172.4C718.407 171.709 718.659 171.131 719.163 170.664C719.667 170.197 720.32 169.964 721.123 169.964C721.925 169.964 722.579 170.188 723.083 170.636C723.587 171.065 723.839 171.625 723.839 172.316C723.839 173.044 723.587 173.651 723.083 174.136C722.597 174.603 721.944 174.836 721.123 174.836ZM736.502 176.712C737.697 176.712 738.761 176.955 739.694 177.44C740.646 177.907 741.393 178.635 741.934 179.624C742.475 180.595 742.746 181.845 742.746 183.376V192H738.378V184.048C738.378 182.835 738.107 181.939 737.566 181.36C737.043 180.781 736.297 180.492 735.326 180.492C734.635 180.492 734.01 180.641 733.45 180.94C732.909 181.22 732.479 181.659 732.162 182.256C731.863 182.853 731.714 183.619 731.714 184.552V192H727.346V176.936H731.518V181.108L730.734 179.848C731.275 178.84 732.05 178.065 733.058 177.524C734.066 176.983 735.214 176.712 736.502 176.712ZM746.705 192V176.936H751.073V192H746.705ZM748.889 174.836C748.087 174.836 747.433 174.603 746.929 174.136C746.425 173.669 746.173 173.091 746.173 172.4C746.173 171.709 746.425 171.131 746.929 170.664C747.433 170.197 748.087 169.964 748.889 169.964C749.692 169.964 750.345 170.188 750.849 170.636C751.353 171.065 751.605 171.625 751.605 172.316C751.605 173.044 751.353 173.651 750.849 174.136C750.364 174.603 749.711 174.836 748.889 174.836ZM761.287 192.224C759.514 192.224 758.133 191.776 757.143 190.88C756.154 189.965 755.659 188.612 755.659 186.82V173.604H760.027V186.764C760.027 187.399 760.195 187.893 760.531 188.248C760.867 188.584 761.325 188.752 761.903 188.752C762.594 188.752 763.182 188.565 763.667 188.192L764.843 191.272C764.395 191.589 763.854 191.832 763.219 192C762.603 192.149 761.959 192.224 761.287 192.224ZM753.335 180.632V177.272H763.779V180.632H753.335ZM768.926 197.656C768.142 197.656 767.367 197.535 766.602 197.292C765.837 197.049 765.211 196.713 764.726 196.284L766.322 193.176C766.658 193.475 767.041 193.708 767.47 193.876C767.918 194.044 768.357 194.128 768.786 194.128C769.402 194.128 769.887 193.979 770.242 193.68C770.615 193.4 770.951 192.924 771.25 192.252L772.034 190.404L772.37 189.928L777.774 176.936H781.974L775.17 192.924C774.685 194.137 774.125 195.089 773.49 195.78C772.874 196.471 772.183 196.956 771.418 197.236C770.671 197.516 769.841 197.656 768.926 197.656ZM771.502 192.588L764.782 176.936H769.29L774.498 189.536L771.502 192.588Z" fill="white"/>
<path d="M699.754 217V215.144L699.706 214.84V211.736C699.706 211.021 699.504 210.472 699.098 210.088C698.704 209.704 698.112 209.512 697.322 209.512C696.778 209.512 696.261 209.603 695.77 209.784C695.28 209.965 694.864 210.205 694.522 210.504L694.01 209.656C694.437 209.293 694.949 209.016 695.546 208.824C696.144 208.621 696.773 208.52 697.434 208.52C698.522 208.52 699.36 208.792 699.946 209.336C700.544 209.869 700.842 210.685 700.842 211.784V217H699.754ZM696.858 217.08C696.229 217.08 695.68 216.979 695.21 216.776C694.752 216.563 694.4 216.275 694.154 215.912C693.909 215.539 693.786 215.112 693.786 214.632C693.786 214.195 693.888 213.8 694.09 213.448C694.304 213.085 694.645 212.797 695.114 212.584C695.594 212.36 696.234 212.248 697.034 212.248H699.93V213.096H697.066C696.256 213.096 695.69 213.24 695.37 213.528C695.061 213.816 694.906 214.173 694.906 214.6C694.906 215.08 695.093 215.464 695.466 215.752C695.84 216.04 696.362 216.184 697.034 216.184C697.674 216.184 698.224 216.04 698.682 215.752C699.152 215.453 699.493 215.027 699.706 214.472L699.962 215.256C699.749 215.811 699.376 216.253 698.842 216.584C698.32 216.915 697.658 217.08 696.858 217.08ZM714.424 208.52C715.106 208.52 715.698 208.653 716.2 208.92C716.712 209.176 717.106 209.571 717.384 210.104C717.672 210.637 717.816 211.309 717.816 212.12V217H716.68V212.232C716.68 211.347 716.466 210.68 716.04 210.232C715.624 209.773 715.032 209.544 714.264 209.544C713.688 209.544 713.186 209.667 712.76 209.912C712.344 210.147 712.018 210.493 711.784 210.952C711.56 211.4 711.448 211.944 711.448 212.584V217H710.312V212.232C710.312 211.347 710.098 210.68 709.672 210.232C709.245 209.773 708.648 209.544 707.88 209.544C707.314 209.544 706.818 209.667 706.392 209.912C705.965 210.147 705.634 210.493 705.4 210.952C705.176 211.4 705.064 211.944 705.064 212.584V217H703.928V208.6H705.016V210.872L704.84 210.472C705.096 209.864 705.506 209.389 706.072 209.048C706.648 208.696 707.325 208.52 708.104 208.52C708.925 208.52 709.624 208.728 710.2 209.144C710.776 209.549 711.149 210.163 711.32 210.984L710.872 210.808C711.117 210.125 711.549 209.576 712.168 209.16C712.797 208.733 713.549 208.52 714.424 208.52ZM725.232 217.08C724.496 217.08 723.835 216.915 723.248 216.584C722.662 216.243 722.198 215.752 721.856 215.112C721.515 214.472 721.344 213.699 721.344 212.792C721.344 211.875 721.515 211.101 721.856 210.472C722.208 209.832 722.678 209.347 723.264 209.016C723.851 208.685 724.507 208.52 725.232 208.52C726.032 208.52 726.747 208.701 727.376 209.064C728.016 209.416 728.518 209.912 728.88 210.552C729.243 211.192 729.424 211.939 729.424 212.792C729.424 213.635 729.243 214.381 728.88 215.032C728.518 215.672 728.016 216.173 727.376 216.536C726.747 216.899 726.032 217.08 725.232 217.08ZM720.896 217V205.128H722.032V211.08L721.872 212.776L721.984 214.472V217H720.896ZM725.152 216.072C725.75 216.072 726.283 215.939 726.752 215.672C727.222 215.395 727.595 215.011 727.872 214.52C728.15 214.019 728.288 213.443 728.288 212.792C728.288 212.131 728.15 211.555 727.872 211.064C727.595 210.573 727.222 210.195 726.752 209.928C726.283 209.651 725.75 209.512 725.152 209.512C724.555 209.512 724.016 209.651 723.536 209.928C723.067 210.195 722.694 210.573 722.416 211.064C722.15 211.555 722.016 212.131 722.016 212.792C722.016 213.443 722.15 214.019 722.416 214.52C722.694 215.011 723.067 215.395 723.536 215.672C724.016 215.939 724.555 216.072 725.152 216.072ZM731.74 217V208.6H732.876V217H731.74ZM732.316 206.744C732.082 206.744 731.884 206.664 731.724 206.504C731.564 206.344 731.484 206.152 731.484 205.928C731.484 205.704 731.564 205.517 731.724 205.368C731.884 205.208 732.082 205.128 732.316 205.128C732.551 205.128 732.748 205.203 732.908 205.352C733.068 205.501 733.148 205.688 733.148 205.912C733.148 206.147 733.068 206.344 732.908 206.504C732.759 206.664 732.562 206.744 732.316 206.744ZM738.693 217.08C737.904 217.08 737.296 216.867 736.869 216.44C736.442 216.013 736.229 215.411 736.229 214.632V206.744H737.365V214.568C737.365 215.059 737.488 215.437 737.733 215.704C737.989 215.971 738.352 216.104 738.821 216.104C739.322 216.104 739.738 215.96 740.069 215.672L740.469 216.488C740.245 216.691 739.973 216.84 739.653 216.936C739.344 217.032 739.024 217.08 738.693 217.08ZM734.725 209.544V208.6H739.925V209.544H734.725ZM742.537 217V208.6H743.673V217H742.537ZM743.113 206.744C742.878 206.744 742.681 206.664 742.521 206.504C742.361 206.344 742.281 206.152 742.281 205.928C742.281 205.704 742.361 205.517 742.521 205.368C742.681 205.208 742.878 205.128 743.113 205.128C743.348 205.128 743.545 205.203 743.705 205.352C743.865 205.501 743.945 205.688 743.945 205.912C743.945 206.147 743.865 206.344 743.705 206.504C743.556 206.664 743.358 206.744 743.113 206.744ZM750.258 217.08C749.447 217.08 748.717 216.899 748.066 216.536C747.426 216.163 746.919 215.656 746.546 215.016C746.173 214.365 745.986 213.624 745.986 212.792C745.986 211.949 746.173 211.208 746.546 210.568C746.919 209.928 747.426 209.427 748.066 209.064C748.706 208.701 749.437 208.52 750.258 208.52C751.09 208.52 751.826 208.701 752.466 209.064C753.117 209.427 753.623 209.928 753.986 210.568C754.359 211.208 754.546 211.949 754.546 212.792C754.546 213.624 754.359 214.365 753.986 215.016C753.623 215.656 753.117 216.163 752.466 216.536C751.815 216.899 751.079 217.08 750.258 217.08ZM750.258 216.072C750.866 216.072 751.405 215.939 751.874 215.672C752.343 215.395 752.711 215.011 752.978 214.52C753.255 214.019 753.394 213.443 753.394 212.792C753.394 212.131 753.255 211.555 752.978 211.064C752.711 210.573 752.343 210.195 751.874 209.928C751.405 209.651 750.871 209.512 750.274 209.512C749.677 209.512 749.143 209.651 748.674 209.928C748.205 210.195 747.831 210.573 747.554 211.064C747.277 211.555 747.138 212.131 747.138 212.792C747.138 213.443 747.277 214.019 747.554 214.52C747.831 215.011 748.205 215.395 748.674 215.672C749.143 215.939 749.671 216.072 750.258 216.072ZM761.153 208.52C761.836 208.52 762.433 208.653 762.945 208.92C763.468 209.176 763.873 209.571 764.161 210.104C764.46 210.637 764.609 211.309 764.609 212.12V217H763.473V212.232C763.473 211.347 763.249 210.68 762.801 210.232C762.364 209.773 761.745 209.544 760.945 209.544C760.348 209.544 759.825 209.667 759.377 209.912C758.94 210.147 758.599 210.493 758.353 210.952C758.119 211.4 758.001 211.944 758.001 212.584V217H756.865V208.6H757.953V210.904L757.777 210.472C758.044 209.864 758.471 209.389 759.057 209.048C759.644 208.696 760.343 208.52 761.153 208.52Z" fill="white"/>
<rect x="653.25" y="145.25" width="152.5" height="95.5" rx="7.75" stroke="white" stroke-opacity="0.1" stroke-width="0.5"/>
</g>
<path d="M40.9943 194.186V190.636H57.7188V194.186H51.4844V211H47.2287V194.186H40.9943ZM65.0792 211.298C63.5347 211.298 62.199 210.97 61.0721 210.314C59.9518 209.651 59.0868 208.73 58.4769 207.55C57.8671 206.363 57.5621 204.988 57.5621 203.423C57.5621 201.846 57.8671 200.467 58.4769 199.287C59.0868 198.1 59.9518 197.179 61.0721 196.523C62.199 195.86 63.5347 195.528 65.0792 195.528C66.6237 195.528 67.9561 195.86 69.0763 196.523C70.2032 197.179 71.0716 198.1 71.6815 199.287C72.2913 200.467 72.5962 201.846 72.5962 203.423C72.5962 204.988 72.2913 206.363 71.6815 207.55C71.0716 208.73 70.2032 209.651 69.0763 210.314C67.9561 210.97 66.6237 211.298 65.0792 211.298ZM65.0991 208.017C65.8017 208.017 66.3884 207.818 66.859 207.42C67.3297 207.016 67.6843 206.466 67.9229 205.77C68.1682 205.074 68.2908 204.282 68.2908 203.393C68.2908 202.505 68.1682 201.713 67.9229 201.017C67.6843 200.321 67.3297 199.771 66.859 199.366C66.3884 198.962 65.8017 198.76 65.0991 198.76C64.3898 198.76 63.7932 198.962 63.3093 199.366C62.832 199.771 62.4708 200.321 62.2255 201.017C61.9869 201.713 61.8675 202.505 61.8675 203.393C61.8675 204.282 61.9869 205.074 62.2255 205.77C62.4708 206.466 62.832 207.016 63.3093 207.42C63.7932 207.818 64.3898 208.017 65.0991 208.017ZM75.3505 216.727V195.727H79.5266V198.293H79.7156C79.9012 197.882 80.1696 197.464 80.521 197.04C80.8789 196.609 81.3429 196.251 81.913 195.966C82.4897 195.674 83.2056 195.528 84.0607 195.528C85.1744 195.528 86.2018 195.82 87.1431 196.403C88.0844 196.98 88.8368 197.852 89.4002 199.018C89.9637 200.179 90.2454 201.634 90.2454 203.384C90.2454 205.087 89.9703 206.526 89.4201 207.699C88.8765 208.866 88.1341 209.75 87.1928 210.354C86.2582 210.95 85.2108 211.249 84.0508 211.249C83.2288 211.249 82.5295 211.113 81.9528 210.841C81.3827 210.569 80.9154 210.228 80.5508 209.817C80.1862 209.399 79.9078 208.978 79.7156 208.554H79.5863V216.727H75.3505ZM79.4968 203.364C79.4968 204.272 79.6228 205.064 79.8746 205.74C80.1265 206.416 80.4911 206.943 80.9684 207.321C81.4457 207.692 82.0257 207.878 82.7085 207.878C83.3978 207.878 83.9812 207.689 84.4585 207.311C84.9357 206.927 85.297 206.396 85.5423 205.72C85.7942 205.037 85.9201 204.252 85.9201 203.364C85.9201 202.482 85.7975 201.706 85.5522 201.037C85.3069 200.367 84.9457 199.844 84.4684 199.466C83.9911 199.088 83.4045 198.899 82.7085 198.899C82.0191 198.899 81.4357 199.081 80.9585 199.446C80.4878 199.811 80.1265 200.328 79.8746 200.997C79.6228 201.667 79.4968 202.455 79.4968 203.364ZM107.673 195.727V198.909H98.4759V195.727H107.673ZM100.564 192.068H104.8V206.307C104.8 206.698 104.859 207.003 104.979 207.222C105.098 207.434 105.264 207.583 105.476 207.669C105.695 207.755 105.946 207.798 106.232 207.798C106.43 207.798 106.629 207.782 106.828 207.749C107.027 207.709 107.179 207.679 107.286 207.659L107.952 210.811C107.74 210.877 107.441 210.954 107.057 211.04C106.672 211.133 106.205 211.189 105.655 211.209C104.634 211.249 103.739 211.113 102.97 210.801C102.208 210.49 101.615 210.006 101.19 209.349C100.766 208.693 100.557 207.865 100.564 206.864V192.068ZM117.229 211.298C115.658 211.298 114.305 210.98 113.172 210.344C112.045 209.701 111.177 208.793 110.567 207.619C109.957 206.439 109.652 205.044 109.652 203.433C109.652 201.862 109.957 200.483 110.567 199.297C111.177 198.11 112.035 197.186 113.142 196.523C114.256 195.86 115.562 195.528 117.06 195.528C118.067 195.528 119.005 195.691 119.874 196.016C120.749 196.334 121.511 196.814 122.161 197.457C122.817 198.1 123.327 198.909 123.692 199.884C124.056 200.851 124.239 201.985 124.239 203.284V204.447H111.342V201.822H120.251C120.251 201.213 120.119 200.672 119.854 200.202C119.589 199.731 119.221 199.363 118.75 199.098C118.286 198.826 117.746 198.69 117.129 198.69C116.486 198.69 115.916 198.839 115.419 199.138C114.929 199.429 114.544 199.824 114.266 200.321C113.987 200.812 113.845 201.358 113.838 201.962V204.457C113.838 205.213 113.977 205.866 114.256 206.416C114.541 206.966 114.942 207.391 115.459 207.689C115.976 207.987 116.589 208.136 117.298 208.136C117.769 208.136 118.2 208.07 118.591 207.938C118.982 207.805 119.317 207.606 119.595 207.341C119.874 207.076 120.086 206.751 120.232 206.366L124.149 206.625C123.95 207.566 123.543 208.388 122.926 209.091C122.316 209.787 121.527 210.33 120.56 210.722C119.598 211.106 118.488 211.298 117.229 211.298ZM133.903 211.298C132.339 211.298 130.993 210.967 129.866 210.304C128.746 209.634 127.884 208.706 127.281 207.52C126.685 206.333 126.386 204.968 126.386 203.423C126.386 201.859 126.688 200.487 127.291 199.307C127.901 198.12 128.766 197.196 129.886 196.533C131.007 195.863 132.339 195.528 133.884 195.528C135.216 195.528 136.383 195.77 137.384 196.254C138.384 196.738 139.177 197.418 139.76 198.293C140.343 199.168 140.665 200.195 140.724 201.375H136.727C136.615 200.613 136.316 200 135.832 199.536C135.355 199.065 134.729 198.83 133.953 198.83C133.297 198.83 132.723 199.009 132.233 199.366C131.749 199.718 131.371 200.232 131.099 200.908C130.828 201.584 130.692 202.402 130.692 203.364C130.692 204.338 130.824 205.167 131.089 205.849C131.361 206.532 131.742 207.053 132.233 207.411C132.723 207.768 133.297 207.947 133.953 207.947C134.437 207.947 134.871 207.848 135.256 207.649C135.647 207.45 135.968 207.162 136.22 206.784C136.479 206.4 136.648 205.939 136.727 205.402H140.724C140.658 206.569 140.34 207.596 139.77 208.484C139.206 209.366 138.428 210.055 137.433 210.553C136.439 211.05 135.262 211.298 133.903 211.298ZM147.672 202.17V211H143.436V190.636H147.553V198.422H147.732C148.077 197.52 148.633 196.814 149.402 196.304C150.171 195.787 151.136 195.528 152.296 195.528C153.356 195.528 154.281 195.76 155.07 196.224C155.865 196.682 156.482 197.341 156.919 198.203C157.364 199.058 157.582 200.082 157.576 201.276V211H153.34V202.031C153.346 201.09 153.108 200.357 152.624 199.834C152.147 199.31 151.477 199.048 150.615 199.048C150.039 199.048 149.528 199.171 149.084 199.416C148.647 199.661 148.302 200.019 148.05 200.49C147.805 200.954 147.679 201.514 147.672 202.17ZM163.385 211.259C162.729 211.259 162.165 211.027 161.695 210.562C161.231 210.092 160.999 209.528 160.999 208.872C160.999 208.223 161.231 207.666 161.695 207.202C162.165 206.738 162.729 206.506 163.385 206.506C164.021 206.506 164.578 206.738 165.055 207.202C165.533 207.666 165.771 208.223 165.771 208.872C165.771 209.31 165.659 209.711 165.433 210.075C165.214 210.433 164.926 210.722 164.568 210.94C164.21 211.152 163.816 211.259 163.385 211.259ZM163.385 200.56C162.729 200.56 162.165 200.328 161.695 199.864C161.231 199.4 160.999 198.836 160.999 198.173C160.999 197.524 161.231 196.97 161.695 196.513C162.165 196.049 162.729 195.817 163.385 195.817C164.021 195.817 164.578 196.049 165.055 196.513C165.533 196.97 165.771 197.524 165.771 198.173C165.771 198.617 165.659 199.022 165.433 199.386C165.214 199.744 164.926 200.029 164.568 200.241C164.21 200.454 163.816 200.56 163.385 200.56Z" fill="white"/>
<path d="M41.4091 237V225.364H45.3409C46.25 225.364 46.9962 225.519 47.5795 225.83C48.1629 226.136 48.5947 226.559 48.875 227.097C49.1553 227.634 49.2955 228.246 49.2955 228.932C49.2955 229.617 49.1553 230.225 48.875 230.756C48.5947 231.286 48.1648 231.703 47.5852 232.006C47.0057 232.305 46.2652 232.455 45.3636 232.455H42.1818V231.182H45.3182C45.9394 231.182 46.4394 231.091 46.8182 230.909C47.2008 230.727 47.4773 230.47 47.6477 230.136C47.822 229.799 47.9091 229.398 47.9091 228.932C47.9091 228.466 47.822 228.059 47.6477 227.71C47.4735 227.362 47.1951 227.093 46.8125 226.903C46.4299 226.71 45.9242 226.614 45.2955 226.614H42.8182V237H41.4091ZM46.8864 231.773L49.75 237H48.1136L45.2955 231.773H46.8864ZM55.027 237.182C54.1861 237.182 53.4607 236.996 52.8509 236.625C52.2448 236.25 51.777 235.727 51.4474 235.057C51.1217 234.383 50.9588 233.598 50.9588 232.705C50.9588 231.811 51.1217 231.023 51.4474 230.341C51.777 229.655 52.2353 229.121 52.8224 228.739C53.4134 228.352 54.1027 228.159 54.8906 228.159C55.3452 228.159 55.794 228.235 56.2372 228.386C56.6804 228.538 57.0838 228.784 57.4474 229.125C57.8111 229.462 58.1009 229.909 58.3168 230.466C58.5327 231.023 58.6406 231.708 58.6406 232.523V233.091H51.9134V231.932H57.277C57.277 231.439 57.1785 231 56.9815 230.614C56.7884 230.227 56.5118 229.922 56.152 229.699C55.7959 229.475 55.3755 229.364 54.8906 229.364C54.3565 229.364 53.8944 229.496 53.5043 229.761C53.1179 230.023 52.8205 230.364 52.6122 230.784C52.4039 231.205 52.2997 231.655 52.2997 232.136V232.909C52.2997 233.568 52.4134 234.127 52.6406 234.585C52.8717 235.04 53.1918 235.386 53.6009 235.625C54.0099 235.86 54.4853 235.977 55.027 235.977C55.3793 235.977 55.6974 235.928 55.9815 235.83C56.2694 235.727 56.5175 235.576 56.7259 235.375C56.9342 235.17 57.0952 234.917 57.2088 234.614L58.5043 234.977C58.3679 235.417 58.1387 235.803 57.8168 236.136C57.4948 236.466 57.0971 236.723 56.6236 236.909C56.1501 237.091 55.6179 237.182 55.027 237.182ZM63.2486 237.205C62.6955 237.205 62.1937 237.1 61.7429 236.892C61.2921 236.68 60.9342 236.375 60.669 235.977C60.4039 235.576 60.2713 235.091 60.2713 234.523C60.2713 234.023 60.3698 233.617 60.5668 233.307C60.7637 232.992 61.027 232.746 61.3565 232.568C61.6861 232.39 62.0497 232.258 62.4474 232.17C62.849 232.08 63.2524 232.008 63.6577 231.955C64.188 231.886 64.6179 231.835 64.9474 231.801C65.2808 231.763 65.5232 231.701 65.6747 231.614C65.83 231.527 65.9077 231.375 65.9077 231.159V231.114C65.9077 230.553 65.7543 230.117 65.4474 229.807C65.1444 229.496 64.6842 229.341 64.0668 229.341C63.4266 229.341 62.9247 229.481 62.5611 229.761C62.1974 230.042 61.9418 230.341 61.794 230.659L60.5213 230.205C60.7486 229.674 61.0516 229.261 61.4304 228.966C61.813 228.667 62.2296 228.458 62.6804 228.341C63.1349 228.22 63.5819 228.159 64.0213 228.159C64.3016 228.159 64.6236 228.193 64.9872 228.261C65.3546 228.326 65.7088 228.46 66.0497 228.665C66.3944 228.869 66.6804 229.178 66.9077 229.591C67.1349 230.004 67.2486 230.557 67.2486 231.25V237H65.9077V235.818H65.8395C65.7486 236.008 65.5971 236.21 65.3849 236.426C65.1728 236.642 64.8906 236.826 64.5384 236.977C64.1861 237.129 63.7562 237.205 63.2486 237.205ZM63.4531 236C63.9834 236 64.4304 235.896 64.794 235.688C65.1615 235.479 65.438 235.21 65.6236 234.881C65.813 234.551 65.9077 234.205 65.9077 233.841V232.614C65.8509 232.682 65.7259 232.744 65.5327 232.801C65.3433 232.854 65.1236 232.902 64.8736 232.943C64.6274 232.981 64.3868 233.015 64.152 233.045C63.9209 233.072 63.7334 233.095 63.5895 233.114C63.241 233.159 62.9152 233.233 62.6122 233.335C62.313 233.434 62.0705 233.583 61.8849 233.784C61.7031 233.981 61.6122 234.25 61.6122 234.591C61.6122 235.057 61.7846 235.409 62.1293 235.648C62.4777 235.883 62.919 236 63.4531 236ZM73.2415 237.182C72.4233 237.182 71.7188 236.989 71.1278 236.602C70.5369 236.216 70.0824 235.684 69.7642 235.006C69.446 234.328 69.2869 233.553 69.2869 232.682C69.2869 231.795 69.4498 231.013 69.7756 230.335C70.1051 229.653 70.5634 229.121 71.1506 228.739C71.7415 228.352 72.4309 228.159 73.2188 228.159C73.8324 228.159 74.3854 228.273 74.8778 228.5C75.3703 228.727 75.7737 229.045 76.0881 229.455C76.4025 229.864 76.5975 230.341 76.6733 230.886H75.3324C75.2301 230.489 75.0028 230.136 74.6506 229.83C74.3021 229.519 73.8324 229.364 73.2415 229.364C72.7188 229.364 72.2604 229.5 71.8665 229.773C71.4763 230.042 71.1714 230.422 70.9517 230.915C70.7358 231.403 70.6278 231.977 70.6278 232.636C70.6278 233.311 70.7339 233.898 70.946 234.398C71.1619 234.898 71.465 235.286 71.8551 235.562C72.2491 235.839 72.7112 235.977 73.2415 235.977C73.59 235.977 73.9062 235.917 74.1903 235.795C74.4744 235.674 74.715 235.5 74.9119 235.273C75.1089 235.045 75.2491 234.773 75.3324 234.455H76.6733C76.5975 234.97 76.41 235.434 76.1108 235.847C75.8153 236.256 75.4233 236.581 74.9347 236.824C74.4498 237.062 73.8854 237.182 73.2415 237.182ZM82.429 228.273V229.409H77.9062V228.273H82.429ZM79.2244 226.182H80.5653V234.5C80.5653 234.879 80.6203 235.163 80.7301 235.352C80.8438 235.538 80.9877 235.663 81.1619 235.727C81.34 235.788 81.5275 235.818 81.7244 235.818C81.8722 235.818 81.9934 235.811 82.0881 235.795C82.1828 235.777 82.2585 235.761 82.3153 235.75L82.5881 236.955C82.4972 236.989 82.3703 237.023 82.2074 237.057C82.0445 237.095 81.8381 237.114 81.5881 237.114C81.2093 237.114 80.8381 237.032 80.4744 236.869C80.1146 236.706 79.8153 236.458 79.5767 236.125C79.3419 235.792 79.2244 235.371 79.2244 234.864V226.182ZM86.446 235.409L86.3551 236.023C86.2907 236.455 86.1922 236.917 86.0597 237.409C85.9309 237.902 85.7964 238.366 85.6562 238.801C85.5161 239.237 85.4006 239.583 85.3097 239.841H84.2869C84.3362 239.598 84.4006 239.278 84.4801 238.881C84.5597 238.483 84.6392 238.038 84.7188 237.545C84.8021 237.057 84.8703 236.557 84.9233 236.045L84.9915 235.409H86.446ZM92.9759 226.614V225.364H101.703V226.614H98.044V237H96.6349V226.614H92.9759ZM103.56 240.273C103.332 240.273 103.13 240.254 102.952 240.216C102.774 240.182 102.651 240.148 102.582 240.114L102.923 238.932C103.249 239.015 103.537 239.045 103.787 239.023C104.037 239 104.259 238.888 104.452 238.688C104.649 238.491 104.829 238.17 104.991 237.727L105.241 237.045L102.014 228.273H103.469L105.878 235.227H105.969L108.378 228.273H109.832L106.128 238.273C105.961 238.723 105.755 239.097 105.509 239.392C105.262 239.691 104.976 239.913 104.651 240.057C104.329 240.201 103.965 240.273 103.56 240.273ZM111.602 240.273V228.273H112.898V229.659H113.057C113.155 229.508 113.292 229.314 113.466 229.08C113.644 228.841 113.898 228.629 114.227 228.443C114.561 228.254 115.011 228.159 115.58 228.159C116.314 228.159 116.962 228.343 117.523 228.71C118.083 229.078 118.521 229.598 118.835 230.273C119.15 230.947 119.307 231.742 119.307 232.659C119.307 233.583 119.15 234.384 118.835 235.062C118.521 235.737 118.085 236.259 117.528 236.631C116.972 236.998 116.33 237.182 115.602 237.182C115.042 237.182 114.593 237.089 114.256 236.903C113.919 236.714 113.659 236.5 113.477 236.261C113.295 236.019 113.155 235.818 113.057 235.659H112.943V240.273H111.602ZM112.92 232.636C112.92 233.295 113.017 233.877 113.21 234.381C113.403 234.881 113.686 235.273 114.057 235.557C114.428 235.837 114.883 235.977 115.42 235.977C115.981 235.977 116.449 235.83 116.824 235.534C117.203 235.235 117.487 234.833 117.676 234.33C117.869 233.822 117.966 233.258 117.966 232.636C117.966 232.023 117.871 231.47 117.682 230.977C117.496 230.481 117.214 230.089 116.835 229.801C116.46 229.509 115.989 229.364 115.42 229.364C114.875 229.364 114.417 229.502 114.045 229.778C113.674 230.051 113.394 230.434 113.205 230.926C113.015 231.415 112.92 231.985 112.92 232.636ZM125.011 237.182C124.17 237.182 123.445 236.996 122.835 236.625C122.229 236.25 121.761 235.727 121.432 235.057C121.106 234.383 120.943 233.598 120.943 232.705C120.943 231.811 121.106 231.023 121.432 230.341C121.761 229.655 122.22 229.121 122.807 228.739C123.398 228.352 124.087 228.159 124.875 228.159C125.33 228.159 125.778 228.235 126.222 228.386C126.665 228.538 127.068 228.784 127.432 229.125C127.795 229.462 128.085 229.909 128.301 230.466C128.517 231.023 128.625 231.708 128.625 232.523V233.091H121.898V231.932H127.261C127.261 231.439 127.163 231 126.966 230.614C126.773 230.227 126.496 229.922 126.136 229.699C125.78 229.475 125.36 229.364 124.875 229.364C124.341 229.364 123.879 229.496 123.489 229.761C123.102 230.023 122.805 230.364 122.597 230.784C122.388 231.205 122.284 231.655 122.284 232.136V232.909C122.284 233.568 122.398 234.127 122.625 234.585C122.856 235.04 123.176 235.386 123.585 235.625C123.994 235.86 124.47 235.977 125.011 235.977C125.364 235.977 125.682 235.928 125.966 235.83C126.254 235.727 126.502 235.576 126.71 235.375C126.919 235.17 127.08 234.917 127.193 234.614L128.489 234.977C128.352 235.417 128.123 235.803 127.801 236.136C127.479 236.466 127.081 236.723 126.608 236.909C126.134 237.091 125.602 237.182 125.011 237.182ZM136.847 230.227L135.642 230.568C135.566 230.367 135.455 230.172 135.307 229.983C135.163 229.79 134.966 229.631 134.716 229.506C134.466 229.381 134.146 229.318 133.756 229.318C133.222 229.318 132.777 229.441 132.42 229.688C132.068 229.93 131.892 230.239 131.892 230.614C131.892 230.947 132.013 231.21 132.256 231.403C132.498 231.597 132.877 231.758 133.392 231.886L134.688 232.205C135.468 232.394 136.049 232.684 136.432 233.074C136.814 233.46 137.006 233.958 137.006 234.568C137.006 235.068 136.862 235.515 136.574 235.909C136.29 236.303 135.892 236.614 135.381 236.841C134.869 237.068 134.275 237.182 133.597 237.182C132.706 237.182 131.97 236.989 131.386 236.602C130.803 236.216 130.434 235.652 130.278 234.909L131.551 234.591C131.672 235.061 131.902 235.413 132.239 235.648C132.58 235.883 133.025 236 133.574 236C134.199 236 134.695 235.867 135.062 235.602C135.434 235.333 135.619 235.011 135.619 234.636C135.619 234.333 135.513 234.08 135.301 233.875C135.089 233.667 134.763 233.511 134.324 233.409L132.869 233.068C132.07 232.879 131.483 232.585 131.108 232.188C130.737 231.786 130.551 231.284 130.551 230.682C130.551 230.189 130.689 229.754 130.966 229.375C131.246 228.996 131.627 228.699 132.108 228.483C132.593 228.267 133.142 228.159 133.756 228.159C134.619 228.159 135.297 228.348 135.79 228.727C136.286 229.106 136.638 229.606 136.847 230.227ZM142.57 237.182C141.751 237.182 141.047 236.989 140.456 236.602C139.865 236.216 139.411 235.684 139.092 235.006C138.774 234.328 138.615 233.553 138.615 232.682C138.615 231.795 138.778 231.013 139.104 230.335C139.433 229.653 139.892 229.121 140.479 228.739C141.07 228.352 141.759 228.159 142.547 228.159C143.161 228.159 143.714 228.273 144.206 228.5C144.698 228.727 145.102 229.045 145.416 229.455C145.731 229.864 145.926 230.341 146.001 230.886H144.661C144.558 230.489 144.331 230.136 143.979 229.83C143.63 229.519 143.161 229.364 142.57 229.364C142.047 229.364 141.589 229.5 141.195 229.773C140.804 230.042 140.5 230.422 140.28 230.915C140.064 231.403 139.956 231.977 139.956 232.636C139.956 233.311 140.062 233.898 140.274 234.398C140.49 234.898 140.793 235.286 141.183 235.562C141.577 235.839 142.039 235.977 142.57 235.977C142.918 235.977 143.234 235.917 143.518 235.795C143.803 235.674 144.043 235.5 144.24 235.273C144.437 235.045 144.577 234.773 144.661 234.455H146.001C145.926 234.97 145.738 235.434 145.439 235.847C145.143 236.256 144.751 236.581 144.263 236.824C143.778 237.062 143.214 237.182 142.57 237.182ZM147.962 237V228.273H149.257V229.591H149.348C149.507 229.159 149.795 228.809 150.212 228.54C150.628 228.271 151.098 228.136 151.621 228.136C151.719 228.136 151.842 228.138 151.99 228.142C152.138 228.146 152.25 228.152 152.325 228.159V229.523C152.28 229.511 152.176 229.494 152.013 229.472C151.854 229.445 151.685 229.432 151.507 229.432C151.083 229.432 150.704 229.521 150.371 229.699C150.041 229.873 149.78 230.116 149.587 230.426C149.397 230.733 149.303 231.083 149.303 231.477V237H147.962ZM153.915 237V228.273H155.256V237H153.915ZM154.597 226.818C154.335 226.818 154.11 226.729 153.92 226.551C153.735 226.373 153.642 226.159 153.642 225.909C153.642 225.659 153.735 225.445 153.92 225.267C154.11 225.089 154.335 225 154.597 225C154.858 225 155.081 225.089 155.267 225.267C155.456 225.445 155.551 225.659 155.551 225.909C155.551 226.159 155.456 226.373 155.267 226.551C155.081 226.729 154.858 226.818 154.597 226.818ZM157.712 240.273V228.273H159.007V229.659H159.166C159.265 229.508 159.401 229.314 159.575 229.08C159.753 228.841 160.007 228.629 160.337 228.443C160.67 228.254 161.121 228.159 161.689 228.159C162.424 228.159 163.071 228.343 163.632 228.71C164.193 229.078 164.63 229.598 164.945 230.273C165.259 230.947 165.416 231.742 165.416 232.659C165.416 233.583 165.259 234.384 164.945 235.062C164.63 235.737 164.195 236.259 163.638 236.631C163.081 236.998 162.439 237.182 161.712 237.182C161.151 237.182 160.702 237.089 160.365 236.903C160.028 236.714 159.768 236.5 159.587 236.261C159.405 236.019 159.265 235.818 159.166 235.659H159.053V240.273H157.712ZM159.03 232.636C159.03 233.295 159.126 233.877 159.32 234.381C159.513 234.881 159.795 235.273 160.166 235.557C160.537 235.837 160.992 235.977 161.53 235.977C162.09 235.977 162.558 235.83 162.933 235.534C163.312 235.235 163.596 234.833 163.786 234.33C163.979 233.822 164.075 233.258 164.075 232.636C164.075 232.023 163.981 231.47 163.791 230.977C163.606 230.481 163.323 230.089 162.945 229.801C162.57 229.509 162.098 229.364 161.53 229.364C160.984 229.364 160.526 229.502 160.155 229.778C159.784 230.051 159.503 230.434 159.314 230.926C159.125 231.415 159.03 231.985 159.03 232.636ZM171.257 228.273V229.409H166.734V228.273H171.257ZM168.053 226.182H169.393V234.5C169.393 234.879 169.448 235.163 169.558 235.352C169.672 235.538 169.816 235.663 169.99 235.727C170.168 235.788 170.356 235.818 170.553 235.818C170.7 235.818 170.821 235.811 170.916 235.795C171.011 235.777 171.087 235.761 171.143 235.75L171.416 236.955C171.325 236.989 171.198 237.023 171.036 237.057C170.873 237.095 170.666 237.114 170.416 237.114C170.037 237.114 169.666 237.032 169.303 236.869C168.943 236.706 168.643 236.458 168.405 236.125C168.17 235.792 168.053 235.371 168.053 234.864V226.182ZM179.774 235.409L179.683 236.023C179.619 236.455 179.52 236.917 179.388 237.409C179.259 237.902 179.125 238.366 178.984 238.801C178.844 239.237 178.729 239.583 178.638 239.841H177.615C177.664 239.598 177.729 239.278 177.808 238.881C177.888 238.483 177.967 238.038 178.047 237.545C178.13 237.057 178.198 236.557 178.251 236.045L178.32 235.409H179.774ZM196.168 225.364V237H194.804L188.463 227.864H188.349V237H186.94V225.364H188.304L194.668 234.523H194.781V225.364H196.168ZM202.464 237.182C201.624 237.182 200.898 236.996 200.288 236.625C199.682 236.25 199.214 235.727 198.885 235.057C198.559 234.383 198.396 233.598 198.396 232.705C198.396 231.811 198.559 231.023 198.885 230.341C199.214 229.655 199.673 229.121 200.26 228.739C200.851 228.352 201.54 228.159 202.328 228.159C202.783 228.159 203.232 228.235 203.675 228.386C204.118 228.538 204.521 228.784 204.885 229.125C205.249 229.462 205.538 229.909 205.754 230.466C205.97 231.023 206.078 231.708 206.078 232.523V233.091H199.351V231.932H204.714C204.714 231.439 204.616 231 204.419 230.614C204.226 230.227 203.949 229.922 203.589 229.699C203.233 229.475 202.813 229.364 202.328 229.364C201.794 229.364 201.332 229.496 200.942 229.761C200.555 230.023 200.258 230.364 200.05 230.784C199.841 231.205 199.737 231.655 199.737 232.136V232.909C199.737 233.568 199.851 234.127 200.078 234.585C200.309 235.04 200.629 235.386 201.038 235.625C201.447 235.86 201.923 235.977 202.464 235.977C202.817 235.977 203.135 235.928 203.419 235.83C203.707 235.727 203.955 235.576 204.163 235.375C204.372 235.17 204.533 234.917 204.646 234.614L205.942 234.977C205.805 235.417 205.576 235.803 205.254 236.136C204.932 236.466 204.535 236.723 204.061 236.909C203.588 237.091 203.055 237.182 202.464 237.182ZM208.884 228.273L210.974 231.841L213.065 228.273H214.611L211.793 232.636L214.611 237H213.065L210.974 233.614L208.884 237H207.338L210.111 232.636L207.338 228.273H208.884ZM220.32 228.273V229.409H215.797V228.273H220.32ZM217.115 226.182H218.456V234.5C218.456 234.879 218.511 235.163 218.621 235.352C218.734 235.538 218.878 235.663 219.053 235.727C219.231 235.788 219.418 235.818 219.615 235.818C219.763 235.818 219.884 235.811 219.979 235.795C220.073 235.777 220.149 235.761 220.206 235.75L220.479 236.955C220.388 236.989 220.261 237.023 220.098 237.057C219.935 237.095 219.729 237.114 219.479 237.114C219.1 237.114 218.729 237.032 218.365 236.869C218.005 236.706 217.706 236.458 217.467 236.125C217.232 235.792 217.115 235.371 217.115 234.864V226.182ZM226.973 225.364H228.382V233.682C228.382 234.424 228.246 235.055 227.973 235.574C227.7 236.093 227.316 236.487 226.82 236.756C226.323 237.025 225.738 237.159 225.064 237.159C224.428 237.159 223.861 237.044 223.365 236.812C222.869 236.578 222.479 236.244 222.195 235.812C221.911 235.381 221.768 234.867 221.768 234.273H223.155C223.155 234.602 223.236 234.89 223.399 235.136C223.566 235.379 223.793 235.568 224.081 235.705C224.369 235.841 224.696 235.909 225.064 235.909C225.469 235.909 225.814 235.824 226.098 235.653C226.382 235.483 226.598 235.233 226.746 234.903C226.897 234.57 226.973 234.163 226.973 233.682V225.364ZM237.57 228.273C237.501 227.697 237.225 227.25 236.74 226.932C236.255 226.614 235.661 226.455 234.956 226.455C234.441 226.455 233.99 226.538 233.604 226.705C233.221 226.871 232.922 227.1 232.706 227.392C232.494 227.684 232.388 228.015 232.388 228.386C232.388 228.697 232.462 228.964 232.609 229.188C232.761 229.407 232.954 229.591 233.189 229.739C233.424 229.883 233.67 230.002 233.928 230.097C234.185 230.187 234.422 230.261 234.638 230.318L235.82 230.636C236.123 230.716 236.46 230.826 236.831 230.966C237.206 231.106 237.564 231.297 237.905 231.54C238.25 231.778 238.534 232.085 238.757 232.46C238.981 232.835 239.092 233.295 239.092 233.841C239.092 234.47 238.928 235.038 238.598 235.545C238.272 236.053 237.795 236.456 237.166 236.756C236.541 237.055 235.782 237.205 234.888 237.205C234.054 237.205 233.333 237.07 232.723 236.801C232.117 236.532 231.64 236.157 231.291 235.676C230.946 235.195 230.751 234.636 230.706 234H232.161C232.198 234.439 232.346 234.803 232.604 235.091C232.865 235.375 233.195 235.587 233.592 235.727C233.994 235.864 234.426 235.932 234.888 235.932C235.426 235.932 235.909 235.845 236.337 235.67C236.765 235.492 237.104 235.246 237.354 234.932C237.604 234.614 237.729 234.242 237.729 233.818C237.729 233.432 237.621 233.117 237.405 232.875C237.189 232.633 236.905 232.436 236.553 232.284C236.2 232.133 235.82 232 235.411 231.886L233.979 231.477C233.07 231.216 232.35 230.843 231.82 230.358C231.289 229.873 231.024 229.239 231.024 228.455C231.024 227.803 231.2 227.235 231.553 226.75C231.909 226.261 232.386 225.883 232.984 225.614C233.587 225.341 234.259 225.205 235.001 225.205C235.751 225.205 236.418 225.339 237.001 225.608C237.585 225.873 238.047 226.237 238.388 226.699C238.732 227.161 238.914 227.686 238.933 228.273H237.57ZM243.227 235.409L243.136 236.023C243.072 236.455 242.973 236.917 242.841 237.409C242.712 237.902 242.578 238.366 242.438 238.801C242.297 239.237 242.182 239.583 242.091 239.841H241.068C241.117 239.598 241.182 239.278 241.261 238.881C241.341 238.483 241.42 238.038 241.5 237.545C241.583 237.057 241.652 236.557 241.705 236.045L241.773 235.409H243.227ZM258.348 229C258.223 228.617 258.058 228.275 257.854 227.972C257.653 227.665 257.412 227.403 257.132 227.188C256.856 226.972 256.541 226.807 256.189 226.693C255.837 226.58 255.45 226.523 255.03 226.523C254.34 226.523 253.714 226.701 253.149 227.057C252.585 227.413 252.136 227.938 251.803 228.631C251.469 229.324 251.303 230.174 251.303 231.182C251.303 232.189 251.471 233.04 251.808 233.733C252.145 234.426 252.602 234.951 253.178 235.307C253.753 235.663 254.401 235.841 255.121 235.841C255.787 235.841 256.375 235.699 256.882 235.415C257.393 235.127 257.791 234.722 258.075 234.199C258.363 233.672 258.507 233.053 258.507 232.341L258.939 232.432H255.439V231.182H259.871V232.432C259.871 233.39 259.666 234.223 259.257 234.932C258.852 235.64 258.291 236.189 257.575 236.58C256.863 236.966 256.045 237.159 255.121 237.159C254.09 237.159 253.185 236.917 252.405 236.432C251.628 235.947 251.022 235.258 250.587 234.364C250.155 233.47 249.939 232.409 249.939 231.182C249.939 230.261 250.062 229.434 250.308 228.699C250.558 227.96 250.911 227.331 251.365 226.812C251.82 226.294 252.357 225.896 252.979 225.619C253.6 225.343 254.284 225.205 255.03 225.205C255.643 225.205 256.215 225.297 256.746 225.483C257.28 225.665 257.755 225.924 258.172 226.261C258.592 226.595 258.943 226.994 259.223 227.46C259.503 227.922 259.696 228.436 259.803 229H258.348ZM262.102 237V228.273H263.398V229.591H263.489C263.648 229.159 263.936 228.809 264.352 228.54C264.769 228.271 265.239 228.136 265.761 228.136C265.86 228.136 265.983 228.138 266.131 228.142C266.278 228.146 266.39 228.152 266.466 228.159V229.523C266.42 229.511 266.316 229.494 266.153 229.472C265.994 229.445 265.826 229.432 265.648 229.432C265.223 229.432 264.845 229.521 264.511 229.699C264.182 229.873 263.92 230.116 263.727 230.426C263.538 230.733 263.443 231.083 263.443 231.477V237H262.102ZM270.624 237.205C270.071 237.205 269.569 237.1 269.118 236.892C268.667 236.68 268.309 236.375 268.044 235.977C267.779 235.576 267.646 235.091 267.646 234.523C267.646 234.023 267.745 233.617 267.942 233.307C268.139 232.992 268.402 232.746 268.732 232.568C269.061 232.39 269.425 232.258 269.822 232.17C270.224 232.08 270.627 232.008 271.033 231.955C271.563 231.886 271.993 231.835 272.322 231.801C272.656 231.763 272.898 231.701 273.05 231.614C273.205 231.527 273.283 231.375 273.283 231.159V231.114C273.283 230.553 273.129 230.117 272.822 229.807C272.519 229.496 272.059 229.341 271.442 229.341C270.802 229.341 270.3 229.481 269.936 229.761C269.572 230.042 269.317 230.341 269.169 230.659L267.896 230.205C268.124 229.674 268.427 229.261 268.805 228.966C269.188 228.667 269.605 228.458 270.055 228.341C270.51 228.22 270.957 228.159 271.396 228.159C271.677 228.159 271.999 228.193 272.362 228.261C272.73 228.326 273.084 228.46 273.425 228.665C273.769 228.869 274.055 229.178 274.283 229.591C274.51 230.004 274.624 230.557 274.624 231.25V237H273.283V235.818H273.214C273.124 236.008 272.972 236.21 272.76 236.426C272.548 236.642 272.266 236.826 271.913 236.977C271.561 237.129 271.131 237.205 270.624 237.205ZM270.828 236C271.358 236 271.805 235.896 272.169 235.688C272.536 235.479 272.813 235.21 272.999 234.881C273.188 234.551 273.283 234.205 273.283 233.841V232.614C273.226 232.682 273.101 232.744 272.908 232.801C272.718 232.854 272.499 232.902 272.249 232.943C272.002 232.981 271.762 233.015 271.527 233.045C271.296 233.072 271.108 233.095 270.964 233.114C270.616 233.159 270.29 233.233 269.987 233.335C269.688 233.434 269.446 233.583 269.26 233.784C269.078 233.981 268.987 234.25 268.987 234.591C268.987 235.057 269.16 235.409 269.504 235.648C269.853 235.883 270.294 236 270.828 236ZM277.071 240.273V228.273H278.366V229.659H278.526C278.624 229.508 278.76 229.314 278.935 229.08C279.113 228.841 279.366 228.629 279.696 228.443C280.029 228.254 280.48 228.159 281.048 228.159C281.783 228.159 282.431 228.343 282.991 228.71C283.552 229.078 283.99 229.598 284.304 230.273C284.618 230.947 284.776 231.742 284.776 232.659C284.776 233.583 284.618 234.384 284.304 235.062C283.99 235.737 283.554 236.259 282.997 236.631C282.44 236.998 281.798 237.182 281.071 237.182C280.51 237.182 280.062 237.089 279.724 236.903C279.387 236.714 279.128 236.5 278.946 236.261C278.764 236.019 278.624 235.818 278.526 235.659H278.412V240.273H277.071ZM278.389 232.636C278.389 233.295 278.486 233.877 278.679 234.381C278.872 234.881 279.154 235.273 279.526 235.557C279.897 235.837 280.351 235.977 280.889 235.977C281.45 235.977 281.918 235.83 282.293 235.534C282.671 235.235 282.955 234.833 283.145 234.33C283.338 233.822 283.435 233.258 283.435 232.636C283.435 232.023 283.34 231.47 283.151 230.977C282.965 230.481 282.683 230.089 282.304 229.801C281.929 229.509 281.457 229.364 280.889 229.364C280.344 229.364 279.885 229.502 279.514 229.778C279.143 230.051 278.863 230.434 278.673 230.926C278.484 231.415 278.389 231.985 278.389 232.636ZM288.162 231.75V237H286.821V225.364H288.162V229.636H288.276C288.48 229.186 288.787 228.828 289.196 228.562C289.609 228.294 290.158 228.159 290.844 228.159C291.438 228.159 291.959 228.278 292.406 228.517C292.853 228.752 293.2 229.114 293.446 229.602C293.696 230.087 293.821 230.705 293.821 231.455V237H292.48V231.545C292.48 230.852 292.3 230.316 291.94 229.938C291.584 229.555 291.09 229.364 290.457 229.364C290.018 229.364 289.624 229.456 289.276 229.642C288.931 229.828 288.658 230.098 288.457 230.455C288.26 230.811 288.162 231.242 288.162 231.75ZM300.683 233.364H302.229L303.524 235.068L303.865 235.523L305.797 238.091H304.251L302.979 236.386L302.661 235.955L300.683 233.364ZM306.274 231.182C306.274 232.409 306.053 233.47 305.609 234.364C305.166 235.258 304.558 235.947 303.786 236.432C303.013 236.917 302.13 237.159 301.138 237.159C300.145 237.159 299.263 236.917 298.49 236.432C297.717 235.947 297.109 235.258 296.666 234.364C296.223 233.47 296.001 232.409 296.001 231.182C296.001 229.955 296.223 228.894 296.666 228C297.109 227.106 297.717 226.417 298.49 225.932C299.263 225.447 300.145 225.205 301.138 225.205C302.13 225.205 303.013 225.447 303.786 225.932C304.558 226.417 305.166 227.106 305.609 228C306.053 228.894 306.274 229.955 306.274 231.182ZM304.911 231.182C304.911 230.174 304.742 229.324 304.405 228.631C304.071 227.938 303.619 227.413 303.047 227.057C302.479 226.701 301.842 226.523 301.138 226.523C300.433 226.523 299.795 226.701 299.223 227.057C298.655 227.413 298.202 227.938 297.865 228.631C297.532 229.324 297.365 230.174 297.365 231.182C297.365 232.189 297.532 233.04 297.865 233.733C298.202 234.426 298.655 234.951 299.223 235.307C299.795 235.663 300.433 235.841 301.138 235.841C301.842 235.841 302.479 235.663 303.047 235.307C303.619 234.951 304.071 234.426 304.405 233.733C304.742 233.04 304.911 232.189 304.911 231.182ZM308.643 237V225.364H310.053V235.75H315.462V237H308.643Z" fill="white"/>
</g>
<defs>
<filter id="filter0_b_5_33" x="622" y="29" width="194" height="116" filterUnits="userSpaceOnUse" color-interpolation-filters="sRGB">
<feFlood flood-opacity="0" result="BackgroundImageFix"/>
<feGaussianBlur in="BackgroundImageFix" stdDeviation="5"/>
<feComposite in2="SourceAlpha" operator="in" result="effect1_backgroundBlur_5_33"/>
<feBlend mode="normal" in="SourceGraphic" in2="effect1_backgroundBlur_5_33" result="shape"/>
</filter>
<filter id="filter1_b_5_33" x="486" y="135" width="167" height="116" filterUnits="userSpaceOnUse" color-interpolation-filters="sRGB">
<feFlood flood-opacity="0" result="BackgroundImageFix"/>
<feGaussianBlur in="BackgroundImageFix" stdDeviation="5"/>
<feComposite in2="SourceAlpha" operator="in" result="effect1_backgroundBlur_5_33"/>
<feBlend mode="normal" in="SourceGraphic" in2="effect1_backgroundBlur_5_33" result="shape"/>
</filter>
<filter id="filter2_b_5_33" x="643" y="135" width="173" height="116" filterUnits="userSpaceOnUse" color-interpolation-filters="sRGB">
<feFlood flood-opacity="0" result="BackgroundImageFix"/>
<feGaussianBlur in="BackgroundImageFix" stdDeviation="5"/>
<feComposite in2="SourceAlpha" operator="in" result="effect1_backgroundBlur_5_33"/>
<feBlend mode="normal" in="SourceGraphic" in2="effect1_backgroundBlur_5_33" result="shape"/>
</filter>
<linearGradient id="paint0_linear_5_33" x1="193.5" y1="-4.32898e-05" x2="701" y2="280" gradientUnits="userSpaceOnUse">
<stop stop-color="#6E47C1"/>
<stop offset="1" stop-color="#C751B4"/>
</linearGradient>
<radialGradient id="paint1_radial_5_33" cx="0" cy="0" r="1" gradientUnits="userSpaceOnUse" gradientTransform="translate(859 267) rotate(90) scale(258)">
<stop stop-color="#954CBC"/>
<stop offset="1" stop-color="#C151B5"/>
</radialGradient>
<linearGradient id="paint2_linear_5_33" x1="632" y1="39" x2="806" y2="135" gradientUnits="userSpaceOnUse">
<stop stop-color="#FFB800"/>
<stop offset="1" stop-color="#FF3D00"/>
</linearGradient>
<linearGradient id="paint3_linear_5_33" x1="496" y1="145" x2="643" y2="241" gradientUnits="userSpaceOnUse">
<stop stop-color="#FF62E6"/>
<stop offset="1" stop-color="#5200FF"/>
</linearGradient>
<linearGradient id="paint4_linear_5_33" x1="653" y1="145" x2="806" y2="241" gradientUnits="userSpaceOnUse">
<stop stop-color="#558FFF"/>
<stop offset="1" stop-color="#001AFF"/>
</linearGradient>
<clipPath id="clip0_5_33">
<rect width="846" height="280" rx="6" fill="white"/>
</clipPath>
</defs>
</svg>
