<svg width="110" height="35" viewBox="0 0 110 35" fill="none" xmlns="http://www.w3.org/2000/svg">
<rect width="110" height="35" rx="6" fill="url(#paint0_linear_16_739)"/>
<path d="M11.494 24V11.4H14.41V21.624H20.728V24H11.494ZM22.1593 24V14.316H24.9673V24H22.1593ZM23.5633 12.966C23.0473 12.966 22.6273 12.816 22.3033 12.516C21.9793 12.216 21.8173 11.844 21.8173 11.4C21.8173 10.956 21.9793 10.584 22.3033 10.284C22.6273 9.984 23.0473 9.834 23.5633 9.834C24.0793 9.834 24.4993 9.978 24.8233 10.266C25.1473 10.542 25.3093 10.902 25.3093 11.346C25.3093 11.814 25.1473 12.204 24.8233 12.516C24.5113 12.816 24.0913 12.966 23.5633 12.966ZM33.4593 14.172C34.2273 14.172 34.9113 14.328 35.5113 14.64C36.1233 14.94 36.6033 15.408 36.9513 16.044C37.2993 16.668 37.4733 17.472 37.4733 18.456V24H34.6653V18.888C34.6653 18.108 34.4913 17.532 34.1433 17.16C33.8073 16.788 33.3273 16.602 32.7033 16.602C32.2593 16.602 31.8573 16.698 31.4973 16.89C31.1493 17.07 30.8733 17.352 30.6693 17.736C30.4773 18.12 30.3813 18.612 30.3813 19.212V24H27.5733V14.316H30.2553V16.998L29.7513 16.188C30.0993 15.54 30.5973 15.042 31.2453 14.694C31.8933 14.346 32.6313 14.172 33.4593 14.172ZM42.3407 22.02L42.4127 18.6L46.9307 14.316H50.2787L45.9407 18.726L44.4827 19.914L42.3407 22.02ZM40.0187 24V10.644H42.8267V24H40.0187ZM47.2367 24L43.9607 19.932L45.7247 17.754L50.6387 24H47.2367ZM56.3032 24.144C55.1992 24.144 54.2272 23.928 53.3872 23.496C52.5592 23.064 51.9172 22.476 51.4612 21.732C51.0052 20.976 50.7772 20.118 50.7772 19.158C50.7772 18.186 50.9992 17.328 51.4432 16.584C51.8992 15.828 52.5172 15.24 53.2972 14.82C54.0772 14.388 54.9592 14.172 55.9432 14.172C56.8912 14.172 57.7432 14.376 58.4992 14.784C59.2672 15.18 59.8732 15.756 60.3172 16.512C60.7612 17.256 60.9832 18.15 60.9832 19.194C60.9832 19.302 60.9772 19.428 60.9652 19.572C60.9532 19.704 60.9412 19.83 60.9292 19.95H53.0632V18.312H59.4532L58.3732 18.798C58.3732 18.294 58.2712 17.856 58.0672 17.484C57.8632 17.112 57.5812 16.824 57.2212 16.62C56.8612 16.404 56.4412 16.296 55.9612 16.296C55.4812 16.296 55.0552 16.404 54.6832 16.62C54.3232 16.824 54.0412 17.118 53.8372 17.502C53.6332 17.874 53.5312 18.318 53.5312 18.834V19.266C53.5312 19.794 53.6452 20.262 53.8732 20.67C54.1132 21.066 54.4432 21.372 54.8632 21.588C55.2952 21.792 55.7992 21.894 56.3752 21.894C56.8912 21.894 57.3412 21.816 57.7252 21.66C58.1212 21.504 58.4812 21.27 58.8052 20.958L60.2992 22.578C59.8552 23.082 59.2972 23.472 58.6252 23.748C57.9532 24.012 57.1792 24.144 56.3032 24.144ZM67.0106 24.144C66.0986 24.144 65.2766 23.94 64.5446 23.532C63.8126 23.112 63.2306 22.53 62.7986 21.786C62.3786 21.042 62.1686 20.166 62.1686 19.158C62.1686 18.138 62.3786 17.256 62.7986 16.512C63.2306 15.768 63.8126 15.192 64.5446 14.784C65.2766 14.376 66.0986 14.172 67.0106 14.172C67.8266 14.172 68.5406 14.352 69.1526 14.712C69.7646 15.072 70.2386 15.618 70.5746 16.35C70.9106 17.082 71.0786 18.018 71.0786 19.158C71.0786 20.286 70.9166 21.222 70.5926 21.966C70.2686 22.698 69.8006 23.244 69.1886 23.604C68.5886 23.964 67.8626 24.144 67.0106 24.144ZM67.4966 21.84C67.9526 21.84 68.3666 21.732 68.7386 21.516C69.1106 21.3 69.4046 20.994 69.6206 20.598C69.8486 20.19 69.9626 19.71 69.9626 19.158C69.9626 18.594 69.8486 18.114 69.6206 17.718C69.4046 17.322 69.1106 17.016 68.7386 16.8C68.3666 16.584 67.9526 16.476 67.4966 16.476C67.0286 16.476 66.6086 16.584 66.2366 16.8C65.8646 17.016 65.5646 17.322 65.3366 17.718C65.1206 18.114 65.0126 18.594 65.0126 19.158C65.0126 19.71 65.1206 20.19 65.3366 20.598C65.5646 20.994 65.8646 21.3 66.2366 21.516C66.6086 21.732 67.0286 21.84 67.4966 21.84ZM70.0346 24V22.02L70.0886 19.14L69.9086 16.278V10.644H72.7166V24H70.0346Z" fill="white"/>
<rect x="77" y="6" width="23" height="23" rx="4" fill="white"/>
<path d="M80.3663 24V14.316H83.1743V24H80.3663ZM81.7703 12.966C81.2543 12.966 80.8343 12.816 80.5103 12.516C80.1863 12.216 80.0243 11.844 80.0243 11.4C80.0243 10.956 80.1863 10.584 80.5103 10.284C80.8343 9.984 81.2543 9.834 81.7703 9.834C82.2863 9.834 82.7063 9.978 83.0303 10.266C83.3543 10.542 83.5163 10.902 83.5163 11.346C83.5163 11.814 83.3543 12.204 83.0303 12.516C82.7183 12.816 82.2983 12.966 81.7703 12.966ZM91.6664 14.172C92.4344 14.172 93.1184 14.328 93.7184 14.64C94.3304 14.94 94.8104 15.408 95.1584 16.044C95.5064 16.668 95.6804 17.472 95.6804 18.456V24H92.8724V18.888C92.8724 18.108 92.6984 17.532 92.3504 17.16C92.0144 16.788 91.5344 16.602 90.9104 16.602C90.4664 16.602 90.0644 16.698 89.7044 16.89C89.3564 17.07 89.0804 17.352 88.8764 17.736C88.6844 18.12 88.5884 18.612 88.5884 19.212V24H85.7804V14.316H88.4624V16.998L87.9584 16.188C88.3064 15.54 88.8044 15.042 89.4524 14.694C90.1004 14.346 90.8384 14.172 91.6664 14.172Z" fill="#7B49C0"/>
<defs>
<linearGradient id="paint0_linear_16_739" x1="110" y1="18" x2="-5.89092e-07" y2="18" gradientUnits="userSpaceOnUse">
<stop stop-color="#7D49C0"/>
<stop offset="1" stop-color="#6F47C2"/>
</linearGradient>
</defs>
</svg>
