<svg width="126" height="35" viewBox="0 0 126 35" fill="none" xmlns="http://www.w3.org/2000/svg">
<rect width="126" height="35" rx="6" fill="url(#paint0_linear_16_744)"/>
<path d="M40.648 24V14.912H37.064V12.8H46.824V14.912H43.24V24H40.648ZM51.4396 24.128C50.4583 24.128 49.5943 23.936 48.8476 23.552C48.1116 23.168 47.541 22.6453 47.1356 21.984C46.7303 21.312 46.5276 20.5493 46.5276 19.696C46.5276 18.832 46.725 18.0693 47.1196 17.408C47.525 16.736 48.0743 16.2133 48.7676 15.84C49.461 15.456 50.245 15.264 51.1196 15.264C51.9623 15.264 52.7196 15.4453 53.3916 15.808C54.0743 16.16 54.613 16.672 55.0076 17.344C55.4023 18.0053 55.5996 18.8 55.5996 19.728C55.5996 19.824 55.5943 19.936 55.5836 20.064C55.573 20.1813 55.5623 20.2933 55.5516 20.4H48.5596V18.944H54.2396L53.2796 19.376C53.2796 18.928 53.189 18.5387 53.0076 18.208C52.8263 17.8773 52.5756 17.6213 52.2556 17.44C51.9356 17.248 51.5623 17.152 51.1356 17.152C50.709 17.152 50.3303 17.248 49.9996 17.44C49.6796 17.6213 49.429 17.8827 49.2476 18.224C49.0663 18.5547 48.9756 18.9493 48.9756 19.408V19.792C48.9756 20.2613 49.077 20.6773 49.2796 21.04C49.493 21.392 49.7863 21.664 50.1596 21.856C50.5436 22.0373 50.9916 22.128 51.5036 22.128C51.9623 22.128 52.3623 22.0587 52.7036 21.92C53.0556 21.7813 53.3756 21.5733 53.6636 21.296L54.9916 22.736C54.597 23.184 54.101 23.5307 53.5036 23.776C52.9063 24.0107 52.2183 24.128 51.4396 24.128ZM57.2614 24V12.128H59.7574V24H57.2614ZM66.3459 24.128C65.3645 24.128 64.5005 23.936 63.7539 23.552C63.0179 23.168 62.4472 22.6453 62.0419 21.984C61.6365 21.312 61.4339 20.5493 61.4339 19.696C61.4339 18.832 61.6312 18.0693 62.0259 17.408C62.4312 16.736 62.9805 16.2133 63.6739 15.84C64.3672 15.456 65.1512 15.264 66.0259 15.264C66.8685 15.264 67.6259 15.4453 68.2979 15.808C68.9805 16.16 69.5192 16.672 69.9139 17.344C70.3085 18.0053 70.5059 18.8 70.5059 19.728C70.5059 19.824 70.5005 19.936 70.4899 20.064C70.4792 20.1813 70.4685 20.2933 70.4579 20.4H63.4659V18.944H69.1459L68.1859 19.376C68.1859 18.928 68.0952 18.5387 67.9139 18.208C67.7325 17.8773 67.4819 17.6213 67.1619 17.44C66.8419 17.248 66.4685 17.152 66.0419 17.152C65.6152 17.152 65.2365 17.248 64.9059 17.44C64.5859 17.6213 64.3352 17.8827 64.1539 18.224C63.9725 18.5547 63.8819 18.9493 63.8819 19.408V19.792C63.8819 20.2613 63.9832 20.6773 64.1859 21.04C64.3992 21.392 64.6925 21.664 65.0659 21.856C65.4499 22.0373 65.8979 22.128 66.4099 22.128C66.8685 22.128 67.2685 22.0587 67.6099 21.92C67.9619 21.7813 68.2819 21.5733 68.5699 21.296L69.8979 22.736C69.5032 23.184 69.0072 23.5307 68.4099 23.776C67.8125 24.0107 67.1245 24.128 66.3459 24.128ZM76.2156 27.232C75.405 27.232 74.621 27.1307 73.8636 26.928C73.117 26.736 72.493 26.4427 71.9916 26.048L72.9836 24.256C73.3463 24.5547 73.805 24.7893 74.3596 24.96C74.925 25.1413 75.4796 25.232 76.0236 25.232C76.909 25.232 77.549 25.0347 77.9436 24.64C78.349 24.2453 78.5516 23.6587 78.5516 22.88V21.584L78.7116 19.424L78.6796 17.248V15.392H81.0476V22.56C81.0476 24.16 80.6316 25.3387 79.7996 26.096C78.9676 26.8533 77.773 27.232 76.2156 27.232ZM75.8316 23.584C75.0316 23.584 74.3063 23.4133 73.6556 23.072C73.0156 22.72 72.4983 22.2347 72.1036 21.616C71.7196 20.9867 71.5276 20.256 71.5276 19.424C71.5276 18.5813 71.7196 17.8507 72.1036 17.232C72.4983 16.6027 73.0156 16.1173 73.6556 15.776C74.3063 15.4347 75.0316 15.264 75.8316 15.264C76.557 15.264 77.197 15.4133 77.7516 15.712C78.3063 16 78.7383 16.4533 79.0476 17.072C79.357 17.68 79.5116 18.464 79.5116 19.424C79.5116 20.3733 79.357 21.1573 79.0476 21.776C78.7383 22.384 78.3063 22.8373 77.7516 23.136C77.197 23.4347 76.557 23.584 75.8316 23.584ZM76.3276 21.536C76.765 21.536 77.1543 21.4507 77.4956 21.28C77.837 21.0987 78.1036 20.848 78.2956 20.528C78.4876 20.208 78.5836 19.84 78.5836 19.424C78.5836 18.9973 78.4876 18.6293 78.2956 18.32C78.1036 18 77.837 17.7547 77.4956 17.584C77.1543 17.4027 76.765 17.312 76.3276 17.312C75.8903 17.312 75.501 17.4027 75.1596 17.584C74.8183 17.7547 74.5463 18 74.3436 18.32C74.1516 18.6293 74.0556 18.9973 74.0556 19.424C74.0556 19.84 74.1516 20.208 74.3436 20.528C74.5463 20.848 74.8183 21.0987 75.1596 21.28C75.501 21.4507 75.8903 21.536 76.3276 21.536ZM83.3708 24V15.392H85.7548V17.824L85.4188 17.12C85.6748 16.512 86.0854 16.0533 86.6508 15.744C87.2161 15.424 87.9041 15.264 88.7148 15.264V17.568C88.6081 17.5573 88.5121 17.552 88.4268 17.552C88.3414 17.5413 88.2508 17.536 88.1548 17.536C87.4721 17.536 86.9174 17.7333 86.4908 18.128C86.0748 18.512 85.8668 19.1147 85.8668 19.936V24H83.3708ZM94.9164 24V22.32L94.7564 21.952V18.944C94.7564 18.4107 94.591 17.9947 94.2604 17.696C93.9404 17.3973 93.4444 17.248 92.7724 17.248C92.3137 17.248 91.8604 17.3227 91.4124 17.472C90.975 17.6107 90.6017 17.8027 90.2924 18.048L89.3964 16.304C89.8657 15.9733 90.431 15.7173 91.0924 15.536C91.7537 15.3547 92.4257 15.264 93.1084 15.264C94.4204 15.264 95.439 15.5733 96.1644 16.192C96.8897 16.8107 97.2524 17.776 97.2524 19.088V24H94.9164ZM92.2924 24.128C91.6204 24.128 91.0444 24.016 90.5644 23.792C90.0844 23.5573 89.7164 23.2427 89.4604 22.848C89.2044 22.4533 89.0764 22.0107 89.0764 21.52C89.0764 21.008 89.199 20.56 89.4444 20.176C89.7004 19.792 90.1004 19.4933 90.6444 19.28C91.1884 19.056 91.8977 18.944 92.7724 18.944H95.0604V20.4H93.0444C92.4577 20.4 92.0524 20.496 91.8284 20.688C91.615 20.88 91.5084 21.12 91.5084 21.408C91.5084 21.728 91.631 21.984 91.8764 22.176C92.1324 22.3573 92.479 22.448 92.9164 22.448C93.3324 22.448 93.7057 22.352 94.0364 22.16C94.367 21.9573 94.607 21.664 94.7564 21.28L95.1404 22.432C94.959 22.9867 94.6284 23.408 94.1484 23.696C93.6684 23.984 93.0497 24.128 92.2924 24.128ZM110.535 15.264C111.218 15.264 111.821 15.4027 112.343 15.68C112.877 15.9467 113.293 16.3627 113.591 16.928C113.901 17.4827 114.055 18.1973 114.055 19.072V24H111.559V19.456C111.559 18.7627 111.415 18.2507 111.127 17.92C110.839 17.5893 110.434 17.424 109.911 17.424C109.549 17.424 109.223 17.5093 108.935 17.68C108.647 17.84 108.423 18.0853 108.263 18.416C108.103 18.7467 108.023 19.168 108.023 19.68V24H105.527V19.456C105.527 18.7627 105.383 18.2507 105.095 17.92C104.818 17.5893 104.418 17.424 103.895 17.424C103.533 17.424 103.207 17.5093 102.919 17.68C102.631 17.84 102.407 18.0853 102.247 18.416C102.087 18.7467 102.007 19.168 102.007 19.68V24H99.5114V15.392H101.895V17.744L101.447 17.056C101.746 16.4693 102.167 16.0267 102.711 15.728C103.266 15.4187 103.895 15.264 104.599 15.264C105.389 15.264 106.077 15.4667 106.663 15.872C107.261 16.2667 107.655 16.8747 107.847 17.696L106.967 17.456C107.255 16.784 107.714 16.2507 108.343 15.856C108.983 15.4613 109.714 15.264 110.535 15.264Z" fill="white"/>
<g clip-path="url(#clip0_16_744)">
<path d="M21.5 6.23C15.2762 6.23 10.23 11.2762 10.23 17.5C10.23 23.7238 15.2762 28.77 21.5 28.77C27.7238 28.77 32.77 23.7238 32.77 17.5C32.77 11.2762 27.7238 6.23 21.5 6.23ZM27.0384 13.9557L25.1892 22.6681C25.0627 23.2891 24.6878 23.434 24.168 23.1488L21.3505 21.065L19.9981 22.3806C19.8394 22.5347 19.7152 22.6635 19.4346 22.6635C19.0689 22.6635 19.131 22.5278 19.0068 22.1782L18.0477 19.0272L15.2601 18.1601C14.6575 17.9761 14.6529 17.5621 15.3958 17.2654L26.2518 13.0748C26.7486 12.8517 27.227 13.1944 27.0384 13.9557Z" fill="white"/>
</g>
<defs>
<linearGradient id="paint0_linear_16_744" x1="126" y1="18" x2="-6.74778e-07" y2="18" gradientUnits="userSpaceOnUse">
<stop stop-color="#8C4BBD"/>
<stop offset="1" stop-color="#7A49C0"/>
</linearGradient>
<clipPath id="clip0_16_744">
<rect width="23" height="23" fill="white" transform="translate(10 6)"/>
</clipPath>
</defs>
</svg>
